<?xml version="1.0" standalone="no"?>
<svg version="1.1" id="Layer_1" xmlns="http://www.w3.org/2000/svg" xmlns:xlink="http://www.w3.org/1999/xlink" x="0px" y="0px" width="595.28px" height="595.28px" viewBox="0 0 595.28 595.28" enable-background="new 0 0 595.28 595.28" xml:space="preserve">
<path id="color_x5F_2" fill="#e2ac0d" d="M351.501,376.44H233.518l1.099-9.967c0,0,2.03-5.682,3.818-8.404
	s16.087-6.444,16.087-6.444h80.827c0,0,6.166,1.547,11.992,5.347S351.501,376.44,351.501,376.44z M101.822,341.218
	c-4.391,5.733-9.266,7.049-9.266,7.049v1.31c0,0,6.43,3.337,7.919,3.422s6.829-2.637,10.127-6.466s-1.559-13.771-1.559-13.771
	S106.213,335.484,101.822,341.218z M194.541,405.233c0,0,6.755-1.925,8.883-9.098s2.376-17.59,2.376-17.59h-11.259V405.233z
	 M126.165,310.626h36.432V277.5h-36.432V310.626z"></path>
<path id="color_x5F_1" d="M278.687,397.866c-1.966,0-1.399-2.121,0.257-2.121C280.91,395.745,280.342,397.866,278.687,397.866
	L278.687,397.866z M279.64,409.506c1.003,0,3.114-1.521,1.16-1.521C279.797,407.984,277.686,409.506,279.64,409.506L279.64,409.506z
	 M224.02,347.313c6.351,6.914-1.354,11.531-7.084,14.386c-12.195,6.074-7.82,21.108-11.117,31.836
	c-1.785,5.809-5.091,9.631-9.256,12.069c-0.241,0.371-0.745,0.615-1.262,0.685c-7.439,3.726-17.235,3.523-26.102,2.35
	c-0.673-0.019-1.352-0.049-2.029-0.075c1.633,6.804,3.463,14.057,3.749,20.938c0.048,1.166-2.863,1.699-2.923,0.27
	c-0.29-7.003-2.294-14.465-3.942-21.354c-16.991-0.963-34.931-4.5-49.976-11.698c-7.604-3.638-14.336-8.504-18.229-16.204
	c-2.664-5.271-3.873-11.349-4.693-17.175c-0.176-0.062-0.353-0.117-0.529-0.184c-12.487-4.726-17.172-17.419-12.589-29.631
	c4.522-12.053,16.698-16.908,28.816-15.469c0.085,0.01,0.155,0.026,0.227,0.042c0.034,0.004,0.07,0.004,0.102,0.011
	c13.151,2.796,20.535,17.512,15.852,29.824c-4.407,11.588-16.823,18.7-28.745,16.28c0.732,4.935,1.757,10.18,3.972,14.563
	c4.315,8.538,11.833,13.952,20.585,17.405c14.341,5.658,29.76,9.091,45.208,10.181c0.625-0.626,2.009-0.855,2.467-0.242
	c0.172,0.035,0.427,0.08,0.793,0.132c1.167,0.164,2.336,0.308,3.507,0.438c0.97,0.025,1.939,0.047,2.907,0.053
	c0.481,0.003,0.738,0.124,0.838,0.303c4.094,0.33,8.252,0.497,12.32-0.003c2.625-0.323,4.904-1.054,6.881-2.103
	c-0.063-8.767-0.649-17.518-0.695-26.284c-0.005-1.037,1.83-1.522,2.6-0.923c0.053-0.007,0.106-0.014,0.156-0.014
	c3.042,0,6.083,0,9.124,0c0.1-3.357,0.488-6.571,2.561-9.589c2.059-2.996,4.027-5.891,7.344-7.543
	c3.607-1.797,11.883-5.032,7.752-10.539c-2.406-3.206-6.378-4.86-8.693-8.133c-3.312-4.681-3.811-11.601-4.209-17.169
	c-0.377-5.278,0.289-10.268,0.582-15.507c0.606-10.842-0.248-22.872-4.96-32.841c-10.311-21.817-37.969-35.488-61.334-35.405
	c-22.012,0.078-45.296,5.889-61.398,21.756c-13.814,13.612-20.74,32.411-20.057,51.73c0.786,22.218,9.935,43.07,22.403,61.163
	c11.231,16.299,12.252,35.181,6.443,53.858c-0.358,1.152-3.31,1.516-2.923,0.27c3.23-10.384,4.969-21.537,2.753-32.327
	c-1.538-7.483-4.584-14.313-8.939-20.572c-5.765-8.285-10.846-17.146-14.661-26.505c-7.576-18.588-11.02-39.823-4.967-59.369
	c5.299-17.111,16.732-30.968,32.194-39.925c14.515-8.408,33.199-12.925,50.538-12.206c-0.033-0.089-0.055-0.186-0.055-0.297
	c0-7.374,0-14.748,0-22.122c0-1.201,2.925-1.703,2.925-0.26c0,7.374,0,14.748,0,22.122c0,0.269-0.151,0.5-0.378,0.685
	c2.691,0.192,5.345,0.508,7.936,0.966c21.388,3.779,46.609,17.474,53.897,39.383c3.513,10.563,4.582,22.415,3.158,33.464
	c-0.999,7.75-0.349,16.184,1.761,23.74C216.111,341.876,220.577,343.565,224.02,347.313z M93.776,361.835
	c5.866,1.699,12.224,1.342,17.357-2.443c5.175-3.816,9.651-9.719,10.437-16.281c1.228-10.255-5.8-20.976-15.982-23.224
	c-11.686-1.315-22.511,4.147-25.558,16.091c-2.467,9.67,0.708,20.446,10.452,24.677c0.828,0.359,1.674,0.68,2.532,0.956
	C93.321,361.61,93.593,361.681,93.776,361.835z M166.402,406.093C166.224,406.001,166.074,406.015,166.402,406.093L166.402,406.093z
	 M204.92,379.372c-2.965,0-5.93,0-8.894,0c0.075,7.882,0.532,15.752,0.646,23.633c5.645-4.673,7.934-12.623,8.199-20.793
	C204.901,381.256,204.908,380.309,204.92,379.372z M95.367,353.232c-6.753-2.414-10.161-9.3-7.258-16.093
	c2.813-6.581,9.082-9.143,15.937-8.446c0.097,0.01,0.178,0.026,0.257,0.044c0.023,0.003,0.049,0.004,0.071,0.009
	c7.022,1.726,11.777,9.989,8.192,16.754C109.304,351.655,102.344,355.726,95.367,353.232z M92.43,348.583
	c5.524-3.705,10.076-9.251,13.521-14.854c0.227-0.37,0.925-0.627,1.57-0.695c-1.193-1.116-2.755-1.998-4.745-2.508
	c-5.822-0.518-11.141,2.251-12.393,8.305C89.68,342.232,90.218,346,92.43,348.583z M108.489,334.083
	c-3.739,6.019-8.735,11.895-14.733,15.749c0.482,0.362,1.015,0.683,1.602,0.951C107.06,356.142,114.296,341.527,108.489,334.083z
	 M161.327,311.247c-11.387,0-22.773,0-34.16,0c-0.679,0.492-1.904,0.548-2.323-0.08c-0.016-0.016-0.029-0.031-0.031-0.049
	c-0.073-0.129-0.117-0.28-0.117-0.462c0-11.016,0-22.032,0-33.048c0-1.018,1.758-1.503,2.552-0.96c11.495,0,22.991,0,34.487,0
	c0.671-0.396,1.701-0.396,2.131,0.153c0.067,0.052,0.099,0.115,0.11,0.185c0.055,0.123,0.092,0.26,0.092,0.423
	c0,11.017,0,22.032,0,33.048C164.07,311.64,161.987,312.088,161.327,311.247z M161.124,278.352c-11.163,0-22.327,0-33.49,0
	c0,10.551,0,21.103,0,31.653c11.164,0,22.327,0,33.49,0C161.124,299.453,161.124,288.902,161.124,278.352z M131.641,303.944
	c1.628-6.586,4.723-12.642,7.322-18.875c-0.089-0.797,1.959-1.474,2.709-0.908c0.174,0.069,0.271,0.186,0.253,0.35
	c1.561,3.742,3.295,7.422,4.788,11.189c0.213,0.146,0.338,0.367,0.251,0.639c0.891,2.299,1.685,4.634,2.28,7.041
	c0.265,1.069-2.637,1.83-2.897,0.775c-0.577-2.335-1.345-4.602-2.203-6.835c-2.537,0-5.073,0-7.609,0
	c-0.771,2.052-1.464,4.131-1.993,6.271C134.292,304.595,131.37,305.039,131.641,303.944z M137.237,295.504c2.061,0,4.122,0,6.184,0
	c-0.987-2.419-2.054-4.808-3.102-7.204C139.269,290.692,138.209,293.082,137.237,295.504z M155.763,304.46
	c0-6.695,0-13.391,0-20.085c0-1.33-2.911-0.758-2.911,0.313c0,6.695,0,13.391,0,20.085
	C152.852,306.103,155.763,305.53,155.763,304.46z M118.911,305.311c0-2.795,0-5.589,0-8.384c-5.139,0-10.279,0-15.418,0
	c-1.965,0-1.417-2.15,0.25-2.15c5.056,0,10.112,0,15.168,0c0-3.313,0-6.627,0-9.94c-5.139,0-10.279,0-15.418,0
	c-1.965,0-1.417-2.15,0.25-2.15c5.056,0,10.112,0,15.168,0c0-3.358,0-6.717,0-10.075c0-0.086,0.03-0.166,0.071-0.243
	c0.012-0.595,0.578-1.247,1.495-1.247c4.012,0,8.024,0,12.037,0c0-5.17,0-10.341,0-15.511c0-1.323,2.938-1.751,2.938-0.213
	c0,5.241,0,10.482,0,15.724c2.532,0,5.064,0,7.597,0c0-5.17,0-10.341,0-15.511c0-1.323,2.938-1.751,2.938-0.213
	c0,5.241,0,10.482,0,15.724c3.051,0,6.102,0,9.153,0c0-5.17,0-10.341,0-15.511c0-1.323,2.938-1.751,2.938-0.213
	c0,5.241,0,10.482,0,15.724c3.481,0,6.963,0,10.444,0c0.532,0,0.876,0.164,1.071,0.4c0.161,0.063,0.26,0.164,0.26,0.313
	c0,3.264,0,6.528,0,9.792c5.406,0,10.813,0,16.219,0c1.965,0,1.417,2.15-0.25,2.15c-5.323,0-10.646,0-15.969,0
	c0,2.795,0,5.589,0,8.384c5.406,0,10.813,0,16.219,0c1.965,0,1.417,2.15-0.25,2.15c-5.323,0-10.646,0-15.969,0
	c0,3.313,0,6.627,0,9.94c5.406,0,10.813,0,16.219,0c1.965,0,1.417,2.15-0.25,2.15c-5.323,0-10.646,0-15.969,0
	c0,3.005,0,6.01,0,9.015c0,0.215-0.123,0.406-0.313,0.57c-0.375,0.445-1.077,0.867-1.666,0.867c-3.266,0-6.531,0-9.796,0
	c0,5.268,0,10.534,0,15.802c0,1.323-2.938,1.751-2.938,0.213c0-5.338,0-10.677,0-16.015c-3.051,0-6.102,0-9.153,0
	c0,5.268,0,10.534,0,15.802c0,1.323-2.938,1.751-2.938,0.213c0-5.338,0-10.677,0-16.015c-2.532,0-5.064,0-7.597,0
	c0,5.268,0,10.534,0,15.802c0,1.323-2.938,1.751-2.938,0.213c0-5.338,0-10.677,0-16.015c-4.228,0-8.457,0-12.685,0
	c-0.682,0-0.905-0.23-0.863-0.529c-0.032-0.038-0.055-0.081-0.055-0.133c0-2.91,0-5.819,0-8.729c-5.139,0-10.279,0-15.418,0
	c-1.965,0-1.417-2.15,0.25-2.15C108.798,305.311,113.854,305.311,118.911,305.311z M121.808,314.96c3.877,0,7.754,0,11.631,0
	c0.483-0.177,1.054-0.189,1.465,0c3.023,0,6.046,0,9.069,0c0.483-0.177,1.054-0.189,1.465,0c3.542,0,7.083,0,10.625,0
	c0.483-0.177,1.054-0.189,1.465,0c3.141,0,6.283,0,9.424,0c0-13.879,0-27.758,0-41.637c-3.289,0-6.579,0-9.868,0
	c-0.452,0.15-0.967,0.161-1.356,0c-3.578,0-7.156,0-10.734,0c-0.452,0.15-0.967,0.161-1.356,0c-3.059,0-6.119,0-9.178,0
	c-0.452,0.15-0.967,0.161-1.356,0c-3.766,0-7.531,0-11.297,0c0,3.337,0,6.675,0,10.012c0.052,0.163,0.049,0.34,0,0.515
	c0,3.858,0,7.718,0,11.576c0.052,0.163,0.049,0.34,0,0.515c0,3.34,0,6.68,0,10.02c0.052,0.163,0.049,0.34,0,0.515
	C121.808,309.303,121.808,312.132,121.808,314.96z M188.077,327.782c-1.592,5.188-1.664,10.563-0.581,15.861
	c0.292,1.43,3.193,0.673,2.897-0.775c-0.996-4.875-0.995-9.906,0.473-14.688C191.374,326.527,188.482,326.463,188.077,327.782z
	 M405.667,315.682c0.889,0.997,3.636-0.179,2.65-1.285c-4.43-4.973-16.996-8.264-19.567,0.47c-0.479,1.623,2.406,1.599,2.774,0.346
	C393.452,308.668,402.543,312.176,405.667,315.682z M405.616,377.511c7.882,3.294,13.738-1.335,17.362-8.217
	c0.771-1.463-2.17-1.493-2.774-0.346c-2.801,5.318-6.648,9.21-12.92,6.588C406.044,375.019,403.908,376.797,405.616,377.511z
	 M397.93,343.163c1.057-5.174,1.004-10.503-0.551-15.57c-0.433-1.411-3.327-0.623-2.897,0.777c1.504,4.9,1.524,9.979,0.503,14.979
	C394.676,344.858,397.65,344.534,397.93,343.163z M528.707,349.081c-3.115,8.029-6.789,14.653-12.192,21.285
	c-2.739,3.362-5.367,6.81-7.715,10.458c-1.749,2.717-3.225,5.838-4.811,8.85c-1.564,3.288-3.568,6.664-5.792,8.435
	c-1.299,1.209-2.665,2.009-4.074,2.478c-0.895,9.722,0.22,19.256,2.805,28.663c0.392,1.423-2.505,2.201-2.897,0.775
	c-2.609-9.491-3.738-19.119-2.879-28.919c-10.845,0.221-23.252-15.938-28.112-23.09c-2.589-0.278-5.177-1.206-7.652-2.81
	c-1.429-0.926,1.06-2.496,2.214-1.748c13.067,8.467,28.367-9.693,19.699-21.842c-5.832-8.173-21.146-12.456-26.784-1.837
	c-0.002,0.005-0.007,0.009-0.009,0.014c-0.372,0.829-1.918,1.294-2.577,0.604c-0.191-0.116-0.316-0.282-0.334-0.499
	c-0.595-0.984-1.188-1.961-1.779-2.934c-3.21-3.067-7.846-9.074-9.635-19.203c-1.862-5.198-3.16-10.4-3.171-16.078
	c-0.012-6.308,0.686-12.643-0.206-18.906c-7.973,3.056-16.339,5.556-24.719,7.034c-8.649,1.525-17.908,1.051-26.667,0.787
	c-1.935-0.059-3.998-0.138-6.104-0.304c0.638,10.357,2.274,21.155-0.25,31.297c-1.238,4.975-3.295,9.891-6.878,13.658
	c-1.51,1.588-6.993,4.921-6.172,7.429c1.305,3.989,4.236,5.359,7.649,7.209c4.714,2.556,9.844,7.259,10.325,13.003
	c0.514,6.143,0.322,12.581,1.867,18.586c4.654,18.095,24.183,16.081,38.975,14.546c0.329-0.034,0.991,0.002,1.18,0.354
	c2.189,4.086,9.444,22.748,0.949,24.228c-1.973,0.344-1.192-1.672,0.308-1.934c1.158-0.201,0.001-8.744-0.169-9.638
	c-0.628-3.277-1.424-6.631-2.864-9.661c-1.231-2.592-11.677-0.275-14.38-0.218c-3.519,0.074-7.213-0.168-10.623-1.109
	c-7.15-1.975-13.266-5.787-15.548-13.216c-1.096-3.565-1.626-7.221-1.895-10.937c-0.266-3.668,0.127-8.04-0.986-11.563
	c-1.491-4.716-4.834-8.789-9.398-10.868c-3.382-1.54-5.875-3.087-7.735-6.449c-1.447-2.614-0.911-4.738,1.253-6.274
	c3.386-2.405,6.395-5.345,8.321-9.076c6.298-12.199,3.865-26.441,3.112-39.664c-5.412-0.661-10.841-2.071-14.873-5.302
	c-2.772-2.222-4.474-5.083-5.235-8.198c-0.826-1.893-1.052-4.006-0.308-6.313c0.233-1.752,0.714-3.506,1.435-5.204
	c3.717-8.758,10.789-15.88,18.063-21.812c1.324-1.08,2.68-2.146,4.052-3.198c5.764-5.02,12.534-9.464,20.386-12.34
	c12.793-5.469,27.147-7.678,41.247-8.159c0-4.341,0-8.682,0-13.022c0-1.201,2.925-1.703,2.925-0.26c0,4.4,0,8.803,0,13.204
	c3.764-0.067,7.501-0.021,11.174,0.112c7.734,0.281,15.821,0.925,23.231,3.316c3.258,1.051,8.145,2.744,8.733,6.642
	c3.792,0.075,7.62,0.393,11.294,1.377c17.78,4.761,27.938,19.446,33.973,35.896C537.21,300.607,537.981,325.176,528.707,349.081z
	 M437.488,231.872c-0.051-0.033-0.098-0.07-0.14-0.112c-4.165,0.175-8.322,0.505-12.45,1.009c-1.042,0.127-2.088,0.264-3.137,0.408
	C427.146,232.649,432.437,232.204,437.488,231.872z M441.225,231.645c-0.544,0.01-1.087,0.024-1.631,0.04
	c-0.032,0.021-0.068,0.041-0.102,0.062C440.072,231.711,440.652,231.677,441.225,231.645z M491.431,399.532
	c-0.11-0.002-0.232,0.005-0.341,0.003c0.103,0.015,0.205,0.033,0.308,0.044C491.408,399.563,491.419,399.548,491.431,399.532z
	 M147.322,213.285c29.888,0,59.777,0,89.665,0c0.013-0.458,0.031-0.917,0.062-1.379c1.591-24.446,19.019-44.597,41.239-50.982
	c0.191-0.118,0.458-0.236,0.833-0.335c2.278-0.598,4.584-1.018,6.902-1.299c5.717-0.773,11.646-0.654,17.629,0.525
	c0.163,0.032,0.186,0.104,0.12,0.194c24.433,4.882,46.03,25.148,47.147,51.268c0.029,0.677,0.017,1.341,0.014,2.008
	c29.396,0,58.792,0,88.188,0c1.961,0,0.148,1.852-1.071,1.852c-29.055,0-58.11,0-87.165,0c-0.723,14.61-8.971,26.837-17.717,38.239
	c-9.709,12.658-16.449,25.099-14.19,41.592c0.097,0.706-2.826,1.302-2.897,0.775c-2.013-14.692,2.896-26.791,11.611-38.388
	c8.528-11.349,17.787-22.529,19.843-37.09c0.247-1.745,0.386-3.48,0.431-5.202c-0.487-0.168-0.366-0.599,0.011-0.995
	c0.106-25.707-21.542-48.141-46.303-53.149c-0.162,0.026-0.304,0.035-0.404,0.016c-35.505-6.999-70.014,29.128-59.507,64.496
	c3.893,13.104,12.674,23.164,20.138,34.301c7.712,11.507,11.797,23.521,10.063,37.417c3.719-0.042,7.438-0.116,11.156-0.207
	c0-7.865,0-15.73,0-23.595c-3.591-0.389-7.714-1.497-9.484-4.834c-1.322-2.491-1.116-5.56,0.566-7.855
	c4.068-5.554,10.451-4.293,14.701-0.26c1.785-3.758,4.675-6.764,9.207-6.961c4.204-0.183,5.791,3.692,5.856,7.237
	c4.244-2.146,10.557-3.72,11.539,2.172c0.881,5.283-3.198,8.577-7.815,9.466c-0.065,7.979-0.908,15.9-0.933,23.884
	c0,0.058-0.013,0.11-0.023,0.164c3.333-0.061,6.666-0.106,10-0.113c0.294-0.001,0.523,0.047,0.707,0.122
	c0.365-0.521,1.596-1.052,2.212-0.883c2.924,0.798,6.463,2.351,6.852,5.768c0.33,2.898-2.341,5.172-4.577,6.576
	c1.864,1.023,3.162,2.708,2.536,5.149c-0.895,3.494-3.78,6.056-6.767,7.848c-0.072,0.044-0.193,0.087-0.339,0.128
	c-0.445,0.255-1.034,0.471-1.382,0.471c-0.564,0-1.128,0-1.692,0c-0.003,0.033-0.003,0.066-0.018,0.104
	c-6.302,17.183-36.524,19.002-41.431-0.104c-2.474,0-4.949,0-7.423,0c-0.586,0.277-1.327,0.393-1.752,0.137
	c-0.072-0.043-0.146-0.091-0.219-0.137c-0.067,0-0.134,0-0.202,0c-0.843,0-0.88-0.244-0.584-0.52
	c-2.172-1.53-4.504-3.971-3.591-6.735c0.679-2.055,2.23-3.403,4.059-4.332c-2.266-1.465-5.02-3.958-4.044-6.913
	c0.936-2.834,3.74-4.277,6.449-5.133c0.252-0.336,0.71-0.602,1.295-0.604c0.773-0.002,1.547-0.014,2.32-0.018
	c1.771-16.186-4.616-29.203-13.987-42.121c-8.571-11.814-17.862-24.809-18.176-39.913c-30.243,0-60.486,0-90.729,0
	C144.289,215.137,146.102,213.285,147.322,213.285z M311.863,321.425c-11.969,0-23.937,0-35.906,0
	c4.868,15.806,29.693,16.1,35.418,0.493C311.445,321.728,311.626,321.562,311.863,321.425z M283.595,271.683
	c0.822-0.425,2.421-0.567,2.421-0.244c0,0.197,0,0.395,0,0.592c0.134,0.011,0.271,0.027,0.403,0.035
	c0.932,0.059,0.365,0.57-0.403,0.961c0,7.948,0,15.897,0,23.845c5.934-0.153,11.867-0.331,17.801-0.458
	c0-0.006-0.002-0.011-0.002-0.017c0.025-8.179,0.915-16.292,0.942-24.469c0.003-1.1,1.944-1.575,2.67-0.879
	c7.884-1.036,6.582-16.008-3.828-8.485c-0.378,0.273-2.694,1.134-2.58,0.059c0.268-2.521-0.055-6.485-2.987-7.48
	c-4.049-1.375-6.397,4.708-7.317,7.527c-0.219,0.672-2.309,1.405-2.794,0.748c-2.999-4.054-10.09-8.251-11.991-0.8
	C274.54,268.069,279.005,270.734,283.595,271.683z M266.528,299.173c-0.197,0-0.361-0.023-0.508-0.059
	c-2.001,0.687-4.405,2.056-4.185,4.426c0.225,2.424,2.089,4.033,4.054,5.225c0.184-0.055,0.367-0.115,0.55-0.165
	c1.768-0.482,2.237,1.28,0.472,1.762c-2.052,0.56-5.035,1.738-5.061,4.323c-0.024,2.478,2.149,4.16,4.073,5.316
	c0.073,0.044,0.129,0.09,0.179,0.137c2.561,0,5.121,0,7.682,0c0.625-0.218,1.36-0.261,1.698,0c13.632,0,27.264,0,40.896,0
	c4.243-3.071,8.603-9.855,1.204-11.978c-0.837-0.24,1.629-1.282,2.344-1.132c1.893-1.172,4.383-3.268,3.549-5.793
	c-0.796-2.41-3.257-3.486-5.532-4.113c-0.053,0.531-0.639,1.106-1.503,1.108C299.797,298.263,283.171,299.14,266.528,299.173z
	 M354.291,415.056c0,0.004-0.002,0.008-0.003,0.012c0.019,0.081,0.027,0.169,0.022,0.266c-0.241,5.223-1.397,10.939-4.971,14.976
	c-4.443,5.019-10.708,6.717-17.231,6.836c-0.446,0.008-0.756-0.099-0.958-0.263c-12.78,0-25.561,0-38.34,0
	c-12.494,0-24.987,0-37.48,0c-0.246,0.164-0.561,0.27-0.936,0.263c-6.487-0.119-13.536-1.66-17.579-7.238
	c-3.061-4.223-4.131-9.223-4.367-14.353c-0.003-0.07,0.006-0.137,0.02-0.202c0-6.275,0-12.552,0-18.827c0-1.521,0-3.043,0-4.564
	c0-4.893,0-9.785,0-14.678c-0.461-0.366-0.416-1.021,0-1.473c0-1.053,0-2.105,0-3.158c0-0.004,0.003-0.009,0.003-0.013
	c-0.019-0.081-0.027-0.17-0.022-0.267c0.24-5.222,1.397-10.938,4.971-14.974c4.443-5.019,10.708-6.717,17.231-6.836
	c0.446-0.008,0.756,0.099,0.958,0.263c12.78,0,25.561,0,38.34,0c12.494,0,24.987,0,37.48,0c0.246-0.164,0.561-0.27,0.936-0.263
	c6.487,0.119,13.536,1.66,17.579,7.238c3.06,4.223,4.13,9.223,4.367,14.353c0.003,0.07-0.006,0.137-0.02,0.203
	c0,6.275,0,12.551,0,18.826c0,1.521,0,3.043,0,4.564C354.291,402.184,354.291,408.619,354.291,415.056z M351.394,377.556
	c-0.002,0-0.004,0-0.007,0c-38.674,0-77.348,0-116.022,0c0,4.543,0,9.085,0,13.627c0,1.521,0,3.043,0,4.564
	c0,6.437,0,12.872,0,19.309c0,0.023-0.011,0.046-0.016,0.069c0.017,0.065,0.032,0.133,0.036,0.208
	c0.199,4.333,1.023,9.074,3.626,12.666c3.733,5.149,9.467,6.907,15.639,7.021c0.412,0.008,0.707,0.11,0.91,0.263
	c12.796,0,25.593,0,38.389,0c12.511,0,25.021,0,37.532,0c0.239-0.153,0.536-0.256,0.884-0.263c6.325-0.116,12.926-1.88,16.14-7.855
	c1.944-3.613,2.683-7.546,2.87-11.61c0.002-0.037,0.014-0.07,0.02-0.105c0-6.308,0-12.615,0-18.924c0-1.521,0-3.043,0-4.564
	C351.394,387.158,351.394,382.356,351.394,377.556z M351.41,372.581c-0.017-0.066-0.033-0.133-0.036-0.209
	c-0.199-4.331-1.024-9.072-3.627-12.663c-3.732-5.15-9.466-6.908-15.639-7.021c-0.412-0.008-0.707-0.11-0.91-0.263
	c-12.796,0-25.593,0-38.389,0c-12.511,0-25.021,0-37.532,0c-0.239,0.153-0.536,0.256-0.884,0.263
	c-6.325,0.116-12.926,1.88-16.141,7.855c-1.944,3.613-2.683,7.545-2.869,11.61c-0.002,0.037-0.014,0.07-0.02,0.105
	c0,1.021,0,2.044,0,3.066c38.676,0,77.353,0,116.029,0c0-0.892,0-1.783,0-2.674C351.394,372.627,351.404,372.604,351.41,372.581z
	 M264.538,411.697c-2.061,1.688-5.138,4.102-7.452,1.552c-1.786-1.969-2.039-5.232-2.018-7.748c0.024-2.858,0.579-5.853,1.91-8.398
	c1.411-2.697,3.021-2.469,5.051-0.391c0.825,0.844,3.579-0.283,2.67-1.215c-2.395-2.45-5.789-3.474-8.606-0.997
	c-2.835,2.493-3.69,6.885-3.914,10.466c-0.21,3.355,0.138,8.045,3.059,10.274c3.564,2.72,8.273-0.053,11.167-2.424
	C267.928,411.569,265.551,410.867,264.538,411.697z M321.966,391.841c-6.712,8.223-11.967,17.457-18.259,25.983
	c-0.807,1.093,2.126,0.889,2.708,0.1c6.292-8.527,11.547-17.762,18.259-25.983C325.515,390.911,322.582,391.088,321.966,391.841z
	 M330.71,393.376c-0.902-0.848-3.642,0.322-2.662,1.242c2.836,2.664,6.142,4.641,9.292,6.898c4.333,3.106-5.47,10.215-7.756,12.465
	c-1.279,1.258,1.542,1.61,2.401,0.764c3.754-3.695,7.657-7.16,10.71-11.485c0.135-0.192,0.135-0.586-0.046-0.755
	C338.971,399.052,334.384,396.825,330.71,393.376z M298.964,393.614c-3.672,3.449-8.26,5.676-11.939,9.129
	c-0.281,0.264-0.354,0.687-0.13,1.004c2.99,4.235,6.86,7.621,10.534,11.237c0.884,0.87,3.629-0.29,2.662-1.242
	c-1.66-1.634-3.356-3.23-5.025-4.854c-1.223-1.189-6.149-5.031-4.034-6.807c3.306-2.776,7.167-4.729,10.333-7.701
	C302.668,393.156,299.838,392.795,298.964,393.614z" fill="#e1dbbd"></path>
</svg>