<?xml version="1.0" standalone="no"?>
<svg version="1.1" id="Layer_1" xmlns="http://www.w3.org/2000/svg" xmlns:xlink="http://www.w3.org/1999/xlink" x="0px" y="0px" viewBox="0 0 595.276 595.276" enable-background="new 0 0 595.276 595.276" xml:space="preserve">
<path id="color_x5F_6" fill="#ffffff" d="M515.932,531.943c0,1.968-1.595,3.562-3.562,3.562H61.715
	c-1.968,0-3.563-1.595-3.563-3.562s1.595-3.563,3.563-3.563h1.586h5.757h3.489h2.574h3.201h1.129h3.153h7.183h3.049h5.906h3.159
	h2.756h113.527h0.993h111.773h1.754H438.85c0.022,0.05,0.045,0.1,0.067,0.151h5.989c-0.026-0.05-0.053-0.1-0.08-0.151h0.646h2.857
	c0.027,0.05,0.054,0.1,0.08,0.151h1.962c-0.015-0.05-0.031-0.101-0.046-0.151h3.203c0.015,0.05,0.031,0.101,0.046,0.151h0.905
	c-0.012-0.05-0.022-0.101-0.033-0.151h3.156c0.012,0.05,0.022,0.101,0.034,0.151h6.661c-0.002-0.05-0.002-0.101-0.004-0.151h3.056
	c0.002,0.05,0.002,0.101,0.005,0.151h5.245c0.01-0.05,0.023-0.1,0.033-0.151h3.15c-0.01,0.05-0.023,0.1-0.033,0.151h4.085
	c0.022-0.051,0.045-0.1,0.066-0.151h3.322c-0.022,0.051-0.045,0.1-0.067,0.151h5.41c0.018-0.05,0.037-0.1,0.055-0.151h3.28
	c-0.018,0.05-0.037,0.1-0.055,0.151h8.086c0.036-0.051,0.074-0.1,0.11-0.151h12.332
	C514.337,528.381,515.932,529.976,515.932,531.943z M141.988,511.811c-0.147,0.788,0.4,1.477,1.191,1.477l30.44,0c0,0,0,0,0,0
	l39.965,0c0.631,0,1.009-0.669,0.699-1.238l-0.924-1.693c-1.307-2.395-3.61-4.102-6.242-4.627l-6.092-1.215
	c-3.158-0.63-6.868-1.631-8.876-4.227l-3.78-4.964l-0.72,0.602l-2.692,2.25c-0.927,0.775-2.085,1.229-3.314,1.298l-5.23,0.295
	l-1.182,0.067c0,0-0.899,2.22-1.716,5.105l-1.771-0.36c-3.075-0.625-6.653-1.619-8.317-4.195l-3.124-4.927l-0.799,0.597
	l-2.989,2.234c-1.03,0.769-2.248,1.22-3.486,1.288l-5.269,0.292l-1.19,0.066c0,0-1.109,2.05-2.264,4.764
	c-0.751,1.766-1.516,3.811-2.013,5.762C142.177,510.916,142.07,511.37,141.988,511.811z M263.688,470.867
	c0.335,0.288,0.797,0.253,1.099,0c0.13-0.109,0.233-0.254,0.279-0.438l0.458-1.823c0.647-2.578,0.068-5.309-1.569-7.403
	l-2.792-3.569l-0.555-0.71l-0.443-0.566c-1.965-2.512-4.095-5.651-3.842-8.83l0.529-6.041l-0.958-0.035l-3.582-0.132
	c-1.234-0.045-2.422-0.473-3.402-1.224l-4.169-3.195l-0.942-0.722c0,0-6.65,3.061-10.463,6.671
	c-0.575,0.544-0.565,1.461,0.035,1.977l10.733,9.218l1.012,0.869L263.688,470.867z M281.883,458.821l-5.244,0.292l-1.185,0.066
	c0,0-2.973,6.494-3.566,11.687c-0.007,0.063-0.018,0.128-0.025,0.191c-0.082,0.788,0.523,1.477,1.315,1.477h39.965
	c0.631,0,1.042-0.665,0.76-1.229l-0.219-0.438l-0.621-1.242c-1.188-2.377-3.408-4.072-6.014-4.593l-6.032-1.206
	c-3.127-0.625-6.788-1.619-8.667-4.195l-0.219-0.305l-0.428-0.596l-2.888-4.026l-0.749,0.597l-2.803,2.234
	C284.296,458.303,283.115,458.753,281.883,458.821z"></path>
<path id="color_x5F_5" fill="#FFD2BB" d="M190.069,265.972l4.322-0.129l-1.497,30.043l36.13,40.518
	c2.548,0.906,5.368,1.774,7.322,3.529c2.783,1.505,4.836,4.777,5.68,7.741c0.129,0.454-0.525,0.748-0.753,0.393
	c-1.011-1.578-2.085-3.126-3.401-4.435c-0.024-0.023-0.049-0.045-0.073-0.068c-0.032,0.121-0.065,0.242-0.103,0.358
	c1.795,1.697,3.111,4.1,3.746,6.328c0.129,0.454-0.525,0.748-0.753,0.393c-1.011-1.578-2.085-3.126-3.401-4.435
	c-0.164-0.163-0.333-0.317-0.507-0.468c-0.002,0.003-0.005,0.006-0.007,0.01c1.445,1.622,2.512,3.686,3.063,5.619
	c0.129,0.454-0.525,0.748-0.753,0.393c-1.011-1.578-2.085-3.126-3.401-4.435c-0.072-0.071-0.148-0.138-0.222-0.206
	c-0.079,0.066-0.16,0.131-0.244,0.196c1.218,1.528,2.122,3.36,2.614,5.088c0.129,0.454-0.525,0.748-0.753,0.393
	c-1.011-1.578-2.085-3.126-3.401-4.435c-3.546-1.094-8.599-3.247-10.072-6.769l-27.931-21.174
	C192.477,302.356,190.413,284.218,190.069,265.972z M156.516,498.286l2.989-2.234l0.386-2.365h-12.176l0.046,6.179l5.269-0.292
	C154.268,499.506,155.486,499.056,156.516,498.286z M175.545,493.542l0.869,6.225l5.23-0.295c1.229-0.069,2.387-0.523,3.314-1.298
	l2.692-2.25l0.071-2.383H175.545z M175.757,233.953l1.967,0.166l0.645-7.653l0.539-6.396l2.45-0.381
	c5.506-0.857,9.274-6.015,8.417-11.521l-2.354-15.124l-1.617-10.388l-14.739,2.295l-0.103,5.41l-2.52,1.835l-0.46,11.332
	l-1.864,0.29l-0.206-1.323c-0.287-1.841-2.027-3.113-3.868-2.826c-1.841,0.287-3.113,2.027-2.826,3.868l0.364,2.335
	c0.201,1.29,1.116,2.298,2.279,2.688c0.29,1.862,0.939,3.577,1.859,5.095l-0.286,3.4l-0.445,5.285l-0.14,1.664
	C167.772,226.335,171.979,229.914,175.757,233.953z M151.405,360.94c0.791-2.979,0.7-6.84-0.921-9.557
	c-0.153-0.49-0.364-0.965-0.598-1.432c-0.962-1.923-2.5-3.67-3.889-5.345l-10.323-53.297l5.384-8.099l11.269-16.951l-20.825-11.57
	l-13.789,28.885c-1.535,3.216-1.647,6.929-0.308,10.232l21.283,52.484c-0.535,3.78,2.706,8.214,5.193,10.968
	c0.462,1.798,0.592,3.677,0.654,5.551c0.014,0.422,0.727,0.504,0.848,0.048c0.461-1.736,0.621-3.773,0.357-5.709
	c0.105-0.013,0.208-0.028,0.309-0.044c0.028,0.097,0.06,0.193,0.085,0.291c0.462,1.798,0.592,3.677,0.654,5.551
	c0.014,0.422,0.727,0.504,0.848,0.048c0.516-1.943,0.655-4.262,0.242-6.395c0.004-0.002,0.007-0.003,0.011-0.005
	c0.072,0.218,0.139,0.438,0.196,0.661c0.462,1.798,0.592,3.677,0.654,5.551c0.014,0.422,0.727,0.504,0.848,0.048
	c0.594-2.238,0.693-4.977,0.018-7.353c0.091-0.081,0.181-0.168,0.271-0.255c0.009,0.032,0.02,0.063,0.028,0.096
	c0.462,1.798,0.592,3.677,0.654,5.551c0.01,0.29,0.348,0.414,0.599,0.318C151.269,361.167,151.367,361.082,151.405,360.94z
	 M361.227,326.063c0.925-3.231,1.768-6.182,2.541-8.95c-1.109-0.615-2.209-1.245-3.282-1.925c-2.418,5.372-5.076,10.38-9.034,16.891
	c-2.711,0.729-5.28,1.881-7.611,3.412c-3.439,1.237-6.352,4.618-7.83,7.858c-0.227,0.497,0.47,0.945,0.792,0.579
	c1.429-1.628,2.923-3.21,4.654-4.477c0.031-0.023,0.064-0.043,0.095-0.065c0.016,0.144,0.033,0.288,0.055,0.427
	c-2.345,1.627-4.265,4.144-5.375,6.579c-0.227,0.497,0.47,0.945,0.792,0.579c1.429-1.628,2.923-3.21,4.654-4.477
	c0.215-0.157,0.436-0.305,0.66-0.446c0.002,0.004,0.004,0.008,0.006,0.012c-1.932,1.602-3.508,3.775-4.472,5.888
	c-0.227,0.497,0.47,0.945,0.792,0.579c1.429-1.628,2.923-3.21,4.654-4.477c0.094-0.069,0.193-0.132,0.289-0.198
	c0.079,0.089,0.16,0.177,0.244,0.266c-1.656,1.534-3.006,3.471-3.867,5.359c-0.227,0.497,0.47,0.945,0.792,0.579
	c1.429-1.628,2.923-3.21,4.654-4.477c4.166-0.624,7.415-2.807,9.384-6.529c3.277-3.35,6.486-7.169,9.746-11.224l-0.112-0.556
	C363.339,326.905,362.261,326.504,361.227,326.063z M388.308,487.255l-0.753-3.155l-0.959,2.728L388.308,487.255z M392.58,469.804
	l-1.398,3.975c0.194,0.601,0.297,1.222,0.286,1.84l0.013-0.018l0.196,12.42l10.269-6.434l0.414-9.081l-1.377-1.853l0.162-9.873
	h-10.319L392.58,469.804z M386.069,467.164l-0.445-11.172l-10.314,1.968l2.395,9.57l-4.95,18.339l5.017,0.542l9.875-8.175
	l-0.11-9.373l0,0v0L386.069,467.164z M390.503,231.291c0.351-2.688,0.702-5.375,1.053-8.063c3.606-1.419,6.996-3.444,9.954-5.951
	l-0.648-9.619l-0.128,0.013c0.212-0.977,0.33-1.988,0.33-3.029l-2.646-2.106c-4.827-1-9.47-2.909-13.686-5.77
	c-4.817-3.269-9.263-7.586-11.796-12.682l2.212,24.546c0,5.67,4.627,10.252,8.054,10.252h3.621c0.675,0,1.334-0.063,1.984-0.154
	l0.429,6.361l0.424,6.29L390.503,231.291z M408.864,292.627c-2.853,1.492-5.959,2.989-9.588,4.622
	c-2.648-0.934-5.417-1.438-8.205-1.495c-3.536-0.927-7.851,0.212-10.903,2.046c-0.468,0.281-0.147,1.046,0.325,0.926
	c2.099-0.533,4.227-0.992,6.371-1.056c0.039-0.001,0.077,0.001,0.115,0c-0.068,0.128-0.136,0.256-0.196,0.383
	c-2.854,0.014-5.862,1.003-8.155,2.381c-0.468,0.281-0.147,1.046,0.325,0.926c2.099-0.533,4.227-0.992,6.371-1.056
	c0.266-0.008,0.532-0.004,0.797,0.005c-0.001,0.004-0.001,0.009-0.002,0.014c-2.5,0.227-5.029,1.126-7.02,2.323
	c-0.468,0.281-0.147,1.046,0.325,0.926c2.099-0.533,4.227-0.992,6.371-1.056c0.117-0.004,0.233,0.001,0.35,0.001
	c0.015,0.118,0.032,0.237,0.051,0.357c-2.233,0.328-4.443,1.16-6.221,2.229c-0.468,0.281-0.147,1.046,0.325,0.926
	c2.099-0.533,4.227-0.992,6.371-1.056c3.788,1.843,7.702,1.883,11.431-0.071c4.361-0.86,8.909-2.101,13.618-3.506
	c3.134-0.935,6.337-1.936,9.6-2.937c-1.719-3.32-3.564-6.578-5.036-10.018C413.879,289.899,411.474,291.262,408.864,292.627z
	 M286.976,68.87c0.221,0.474,0.435,0.952,0.641,1.432c0.408,0.951,0.766,1.919,1.046,2.907c0.085,0.301,0.175,0.601,0.242,0.907
	c-0.617,2.277-1.194,5.297-0.973,8c0.148,1.815,0.652,3.489,1.757,4.695l6.676-1.676c0.603-2.826,1.565-5.952,1.088-8.77
	c0.216-3.156-1.451-6.641-3.505-8.939c-0.315-0.352-0.913,0.044-0.734,0.426c0.793,1.699,1.527,3.433,1.93,5.246
	c0.007,0.033,0.012,0.065,0.018,0.098c-0.12-0.037-0.24-0.074-0.357-0.105c-0.474-2.424-1.801-4.822-3.344-6.548
	c-0.315-0.352-0.913,0.044-0.734,0.426c0.793,1.699,1.527,3.433,1.93,5.246c0.05,0.225,0.09,0.451,0.124,0.678
	c-0.004,0-0.008,0.001-0.012,0.001c-0.598-2.089-1.772-4.093-3.111-5.592c-0.315-0.352-0.913,0.044-0.734,0.426
	c0.793,1.699,1.527,3.433,1.93,5.246c0.017,0.078,0.03,0.157,0.044,0.235c0.004,0.021,0.008,0.042,0.012,0.062
	c-0.098,0.032-0.196,0.065-0.296,0.101c-0.019-0.055-0.047-0.108-0.067-0.164c-0.583-1.611-1.485-3.124-2.509-4.361
	c-0.11-0.133-0.214-0.278-0.326-0.404C287.396,68.092,286.798,68.488,286.976,68.87z M252.312,441.321l3.582,0.132l1.684-1.671
	l-9.236-7.933l-3.6,5.054l4.169,3.195C249.889,440.848,251.078,441.276,252.312,441.321z M276.638,459.114l5.244-0.292
	c1.232-0.069,2.413-0.519,3.378-1.288l2.803-2.234l0.188-2.365h-12.176L276.638,459.114z M299.042,141.903l-14.739,2.294
	l-0.103,5.41l-2.52,1.835l-0.46,11.332l-1.864,0.29l-0.206-1.323c-0.287-1.841-2.027-3.113-3.868-2.826
	c-1.841,0.287-3.113,2.027-2.826,3.868l0.364,2.335c0.201,1.29,1.116,2.298,2.279,2.688v0c0.29,1.862,0.939,3.577,1.859,5.095
	l-0.151,1.798l-0.388,4.607l11.358,3.69v8.937c0.411,0.417,0.819,0.838,1.22,1.266l1.967,0.166l0.607-7.205l0.268-3.186l0,0
	l0.308-3.658l2.45-0.381c5.506-0.857,9.274-6.015,8.417-11.521l-1.695-10.891l-0.761-4.888L299.042,141.903z M268.008,73.209
	c-0.021-0.074-0.042-0.153-0.064-0.226c0.295-1.481,0.815-2.914,1.405-4.321c0.135-0.323,0.271-0.645,0.412-0.965
	c0.17-0.386-0.436-0.769-0.743-0.411c-0.016,0.019-0.031,0.042-0.047,0.061c-1.148,1.357-2.156,3.096-2.748,4.929
	c-0.1-0.034-0.199-0.065-0.298-0.095c0.017-0.1,0.03-0.2,0.05-0.299c0.363-1.82,1.06-3.571,1.817-5.286
	c0.17-0.386-0.436-0.769-0.743-0.411c-1.307,1.527-2.438,3.557-2.99,5.658c-0.004,0-0.008,0-0.012-0.001
	c0.03-0.227,0.065-0.454,0.11-0.681c0.363-1.821,1.06-3.571,1.817-5.286c0.17-0.386-0.436-0.769-0.743-0.411
	c-1.506,1.76-2.781,4.185-3.203,6.619c-0.117,0.033-0.236,0.072-0.355,0.112c0.006-0.033,0.01-0.066,0.016-0.098
	c0.363-1.821,1.06-3.571,1.816-5.286c0.17-0.386-0.436-0.769-0.743-0.411c-2.004,2.342-3.596,5.861-3.312,9.012
	c-0.416,2.828,0.613,5.933,1.276,8.745l6.71,1.532c0.846-0.964,1.319-2.208,1.537-3.576C269.43,79.226,268.747,75.78,268.008,73.209
	z"></path>
<path id="color_x5F_4" fill="#1d1c18" d="M163.718,213.655l-0.286,3.4c-2.888-3.206-5.358-6.909-7.137-10.863
	c-0.177-0.394-0.34-0.792-0.503-1.19c-2.2-5.373-3.111-11.14-2.022-16.693c0.385-1.96,1.201-4.172,3.104-4.779
	c-0.656-4.724,4.412-9.933,8.596-12.224c3.131-1.714,6.725-2.297,10.323-2.262c0.23,0.002,0.46,0.018,0.69,0.025
	c0.98,0.031,1.958,0.094,2.924,0.201c3.57,0.397,7.313,1.337,9.791,3.937c2.478,2.601,3.019,7.285,0.29,9.622
	c-0.047,3.538-0.755,7.009-2.068,10.214l-1.617-10.388l-14.739,2.295l-0.103,5.41l-2.52,1.835l-0.46,11.332l-1.864,0.29
	l-0.206-1.323c-0.287-1.841-2.027-3.113-3.868-2.826c-1.841,0.287-3.113,2.027-2.826,3.868l0.364,2.335
	c0.201,1.29,1.116,2.298,2.279,2.688C162.149,210.422,162.799,212.137,163.718,213.655z M387.207,226.285l-0.539-1.446l1.935-0.913
	l0.099,1.469c0.177-0.103,0.355-0.204,0.532-0.305l-0.429-6.361c-0.65,0.091-1.309,0.154-1.984,0.154h-3.621
	c-3.427,0-8.054-4.582-8.054-10.252l-2.212-24.546c2.533,5.096,6.979,9.413,11.796,12.682c4.216,2.861,8.859,4.771,13.686,5.77
	l2.646,2.106c0,1.04-0.118,2.052-0.33,3.029l0.128-0.013l0.648,9.619c0.168-0.142,0.339-0.279,0.504-0.425
	c0.305,0.918,0.688,1.984,1.056,3.021c1.199-0.141,2.406-0.193,3.587-0.076c1.029,0.103,2.04,0.317,3.006,0.708
	c3.282,1.329,5.497,4.33,6.9,7.652l0.529,1.065c0.266-0.099,0.533-0.189,0.799-0.29c-0.289-1.624-0.529-3.248-0.676-4.867
	c-0.697-7.72,0.723-15.535,0.311-23.252c-0.05-0.93-0.125-1.859-0.235-2.787c-0.007-0.061-0.011-0.122-0.019-0.184
	c-1.218-9.86-6.537-19.003-14.113-24.693c-0.588-0.442-1.188-0.863-1.802-1.262c-0.702-0.456-1.416-0.892-2.15-1.288
	c-8.54-4.602-20.179-5.213-28.983-0.843c-10.726,5.324-6.6,17.004-5.165,26.724c1.805,12.226-3.462,24.79-5.386,36.936
	c4.904,1.307,9.819,2.123,14.726,2.504c1.828-1.748,4.106-3.63,6.609-5.471C382.972,229.006,385.075,227.588,387.207,226.285z
	 M296.039,123.913c-1.758,0.166-3.85,0.546-5.023-0.775c-0.548-0.617-0.732-1.466-1.1-2.204c-0.911-1.829-3.025-2.908-5.066-2.811
	c-2.041,0.097-3.95,1.263-5.183,2.893c-1.241,1.641-2.162,3.945-4.193,4.27c-1.328,0.212-2.602-0.563-3.934-0.743
	c-2.817-0.38-5.553,2.53-5.002,5.318c0.299,1.513,1.336,3.181,0.44,4.436c-0.717,1.003-2.18,0.966-3.361,1.322
	c-2.702,0.816-4.037,4.508-2.481,6.863c0.78,1.181,2.053,1.925,3.116,2.859c1.064,0.934,1.99,2.294,1.683,3.676
	c-0.253,1.139-1.265,1.946-1.748,3.008c-0.611,1.343-0.295,2.955,0.424,4.243c0.719,1.288,1.798,2.329,2.81,3.402
	c4.08,4.325,7.278,9.469,9.384,15.028l0.151-1.798c-0.92-1.517-1.569-3.233-1.859-5.095v0c-1.163-0.391-2.078-1.399-2.279-2.688
	l-0.364-2.335c-0.287-1.841,0.985-3.582,2.826-3.868c1.841-0.287,3.582,0.985,3.868,2.826l0.206,1.323l1.864-0.29l0.46-11.332
	l2.52-1.835l0.103-5.41l14.739-2.294l1.515,9.733c0.217-0.187,0.448-0.358,0.714-0.488c0.686-0.335,1.448-0.403,2.218-0.448
	c0.814-0.047,1.638-0.069,2.394-0.351c2.345-0.873,2.983-4.51,1.076-6.129c-0.811-0.688-2.025-1.175-2.138-2.232
	c-0.165-1.551,2.116-2.112,2.843-3.492c0.83-1.574-0.667-3.367-2.152-4.347c-1.485-0.981-3.3-2.068-3.387-3.846
	c-0.038-0.778,0.288-1.532,0.32-2.311c0.059-1.437-0.93-2.773-2.202-3.444c-0.784-0.413-1.656-0.592-2.544-0.65
	C297.147,123.861,296.589,123.861,296.039,123.913z"></path>
<path id="color_x5F_3" fill="#e1dbbd" d="M159.891,493.688h-12.176h-1.426c-3.623-18.555-1.068-49.389,6.91-67.448
	c2.005-4.537,3.186-9.165,3.776-13.863c0.036-0.29,0.059-0.581,0.091-0.872c1.788-16.234-3.292-33.28-5.911-50.295
	c0.114-0.044,0.211-0.128,0.249-0.27c0.791-2.979,0.7-6.84-0.921-9.557c-0.153-0.49-0.364-0.965-0.598-1.432
	c-0.326-5.176-0.216-10.332,0.573-15.443c12.724,5.736,36.678,2.248,45.285-5.912c0.719,29.478,2.118,64.666-2.83,93.25
	c-0.679,3.925-1.231,8.19-1.684,12.665c-0.027,0.263-0.049,0.536-0.075,0.8c-1.85,18.866-1.969,41.33-2.247,58.231h-1.187h-12.175
	h-1.426c-4.137-12.691-6.177-31.082-5.318-47.279c-3.211,16.179-5.663,33.66-7.724,47.425H159.891z M375.309,457.959l10.314-1.968
	l-0.824-20.685l-0.033-0.817l-0.245-6.144l1.106,5.689l0.144,0.741l5.054,26.006h10.319l-0.956-34.595l-0.023-0.85l-0.321-11.625
	c-0.163-5.897-1.438-11.71-3.757-17.134l-1.442-3.371l9.671-35.143c7.249-8.228,11.601-18.73,12.313-29.829l0.622-5.38l-0.246-0.053
	c-1.188,0.625-2.44,1.211-3.743,1.76l-3.718-10.624l-0.863,12.33c-13.709,4.495-31.367,5.239-44.232,1.004l0.112,0.556l4.111,20.362
	l-10.222,28.235l-0.407,1.124l-1.691,4.671l14.756,58.957l0.179,0.715L375.309,457.959z M403.07,219.873
	c-0.368-1.037-0.752-2.103-1.056-3.021c-0.165,0.145-0.337,0.283-0.504,0.425c-2.958,2.507-6.348,4.532-9.954,5.951
	c-0.351,2.688-0.702,5.375-1.053,8.063l-0.844,0.089l-0.424-6.29c-0.178,0.101-0.355,0.202-0.532,0.305l-0.099-1.469l-1.935,0.913
	l0.539,1.446c-2.132,1.303-4.236,2.721-6.201,4.166c-3.75,11.759-2.406,24.801,0.944,36.526
	c1.017-18.302,10.818-34.645,24.708-47.179C405.476,219.68,404.27,219.733,403.07,219.873z M104.658,528.381v-11.039v-4.054h1.157
	h7.65h3.367h3.868h3.305h5.551h3.132h7.114h3.377h30.44h44.565v-42.421h45.503c0.335,0.288,0.797,0.253,1.099,0h7.101
	c-0.007,0.063-0.018,0.128-0.025,0.191c-0.082,0.788,0.523,1.477,1.315,1.477h39.965c0.631,0,1.042-0.665,0.76-1.229l-0.219-0.438
	h19.023v26.218h33.433l3.315-3.262l3.302-7.956l5.017,0.542l9.875-8.175l-0.11-9.373l0,0l2.545,2.942
	c0.515,0.596,0.873,1.271,1.1,1.975c0.194,0.601,0.297,1.222,0.286,1.84l0.013-0.018l0.196,12.42v0l10.269-6.434l0.414-9.081
	l2.387,3.212c0.895,1.205,1.274,2.594,1.176,3.889l0.013-0.015l-0.723,17.493h21.633c-0.275,2.109-0.382,4.232-0.328,6.35
	c2.156,4.339,4.794,8.48,6.863,12.841c1.898,4,3.707,8.042,5.469,12.105H332.705h-1.754H219.178h-0.993H104.658z M401.263,485.812
	l-11.532,11.273h13.598L401.263,485.812z M372.16,497.085h6.706l3.976-3.038l3.754-7.219l1.713,0.427v0l-0.753-3.155l-0.342-1.433
	l-11.251,13.853L372.16,497.085z M444.825,528.381h0.646v-5.397c-4.547-8.673-9.099-17.343-13.857-25.899h-3.524
	c5.167,9.222,10.066,18.593,14.974,27.959C443.648,526.158,444.239,527.268,444.825,528.381z M445.471,502.443
	c-0.576-1.788-1.161-3.573-1.749-5.358h-3.211c1.705,5.146,3.347,10.313,4.961,15.491V502.443z M437.277,497.085h-3.323
	c0.166,0.344,0.342,0.682,0.506,1.027C435.227,499.726,437.449,498.624,437.277,497.085z M258.477,440.555
	c3.185-3.247,7.609-9.31,12.472-16.239c0.22,10.479,1.487,20.675,3.701,28.619h1.426h12.176h1.187
	c1.182-17.84,2.496-41.919,5.669-61.311c0.975-1.05,1.906-1.983,2.772-2.745c7.022-6.176,11.24-14.935,11.705-24.275l0.596-78.033
	c-7.022,8.671-30.944,12.848-44.704,7.904c-1.633,28.087,17.246,57.482,12.265,84.204c-12.333,13.936-24.325,39.085-30.483,52.24
	l1.082,0.929l9.236,7.933L258.477,440.555z M295.739,274.673l5.752,6.621l2.928-7.628l-11.604-80.301h-1.853h-3.188L295.739,274.673
	z"></path>
<path id="color_x5F_2" fill="#f8e71c" d="M337.013,386.915c-0.087-0.231,0.029-0.487,0.26-0.573c1.113-0.418,2.22-0.849,3.32-1.295
	c0.226-0.09,0.487,0.018,0.58,0.246c0.092,0.228-0.018,0.488-0.246,0.58c-1.107,0.447-2.221,0.881-3.341,1.302
	c-0.051,0.02-0.104,0.029-0.157,0.029C337.25,387.204,337.08,387.094,337.013,386.915z M232.13,383.702
	c-0.224-0.098-0.487,0.006-0.586,0.232c-0.097,0.226,0.006,0.488,0.232,0.586c1.098,0.476,2.203,0.939,3.316,1.389
	c0.055,0.022,0.111,0.032,0.167,0.032c0.176,0,0.343-0.105,0.413-0.278c0.092-0.228-0.018-0.488-0.246-0.58
	C234.32,384.636,233.221,384.176,232.13,383.702z M346.489,383.436c0.062,0,0.125-0.013,0.185-0.04
	c1.085-0.496,2.162-1.006,3.232-1.529c0.221-0.108,0.312-0.375,0.204-0.596c-0.109-0.222-0.378-0.311-0.596-0.204
	c-1.063,0.519-2.133,1.026-3.211,1.518c-0.224,0.103-0.322,0.367-0.22,0.591C346.159,383.34,346.32,383.436,346.489,383.436z
	 M223.271,379.481c-0.219-0.114-0.488-0.029-0.601,0.19c-0.114,0.218-0.029,0.487,0.189,0.6c1.062,0.552,2.132,1.092,3.208,1.619
	c0.063,0.03,0.13,0.045,0.195,0.045c0.165,0,0.323-0.092,0.401-0.25c0.108-0.221,0.017-0.488-0.204-0.596
	C225.389,380.566,224.326,380.03,223.271,379.481z M214.732,374.651c-0.21-0.129-0.485-0.062-0.613,0.148
	c-0.129,0.21-0.063,0.484,0.147,0.613c1.021,0.625,2.049,1.237,3.086,1.837c0.07,0.041,0.147,0.06,0.223,0.06
	c0.154,0,0.304-0.08,0.386-0.223c0.124-0.212,0.05-0.486-0.162-0.608C216.768,375.881,215.746,375.272,214.732,374.651z
	 M240.702,387.563c-0.082,0.232,0.04,0.487,0.272,0.569c1.129,0.399,2.266,0.783,3.408,1.153c0.046,0.015,0.092,0.022,0.137,0.022
	c0.188,0,0.363-0.12,0.424-0.308c0.076-0.234-0.052-0.486-0.286-0.561c-1.135-0.368-2.264-0.749-3.386-1.146
	C241.037,387.208,240.784,387.332,240.702,387.563z M321.975,391.099c-1.15,0.286-2.306,0.559-3.468,0.816
	c-0.24,0.053-0.392,0.292-0.339,0.532c0.046,0.208,0.231,0.349,0.435,0.349c0.031,0,0.064-0.003,0.097-0.01
	c1.169-0.259,2.332-0.533,3.49-0.821c0.238-0.059,0.384-0.301,0.325-0.54C322.455,391.184,322.214,391.04,321.975,391.099z
	 M201.472,144.342c0.933-0.731,1.876-1.451,2.829-2.159c0.198-0.147,0.238-0.426,0.092-0.623c-0.147-0.198-0.426-0.239-0.623-0.092
	c-0.959,0.713-1.908,1.438-2.847,2.173c-0.194,0.152-0.228,0.432-0.076,0.625c0.088,0.112,0.219,0.171,0.351,0.171
	C201.294,144.437,201.39,144.406,201.472,144.342z M292.673,113.72c-0.239,0-0.438,0.19-0.445,0.431
	c-0.008,0.246,0.185,0.452,0.431,0.46c1.025,0.034,2.046,0.084,3.065,0.139l-0.195-0.901c-0.945-0.05-1.891-0.098-2.841-0.129
	C292.683,113.72,292.678,113.72,292.673,113.72z M308.878,393.7c-0.244,0.036-0.412,0.263-0.375,0.506
	c0.032,0.222,0.223,0.38,0.439,0.38c0.022,0,0.044-0.002,0.066-0.005c1.185-0.176,2.364-0.368,3.539-0.574
	c0.243-0.043,0.405-0.273,0.362-0.515c-0.042-0.244-0.287-0.412-0.515-0.362C311.226,393.334,310.054,393.524,308.878,393.7z
	 M217.665,133.381c1.024-0.594,2.057-1.175,3.097-1.744c0.216-0.118,0.295-0.389,0.177-0.604c-0.118-0.216-0.389-0.296-0.604-0.177
	c-1.047,0.573-2.086,1.157-3.117,1.755c-0.213,0.124-0.286,0.396-0.162,0.609c0.083,0.142,0.232,0.222,0.386,0.222
	C217.518,133.441,217.595,133.422,217.665,133.381z M209.38,138.578c0.982-0.664,1.972-1.317,2.97-1.957
	c0.208-0.133,0.268-0.408,0.135-0.615c-0.132-0.207-0.409-0.269-0.615-0.135c-1.005,0.643-2.002,1.3-2.99,1.969
	c-0.204,0.138-0.257,0.415-0.119,0.619c0.086,0.127,0.227,0.196,0.369,0.196C209.216,138.655,209.303,138.63,209.38,138.578z
	 M226.093,128.821c0.066,0,0.133-0.014,0.196-0.045c1.062-0.521,2.132-1.028,3.209-1.522c0.224-0.103,0.322-0.367,0.219-0.591
	c-0.103-0.224-0.366-0.321-0.591-0.219c-1.084,0.498-2.161,1.008-3.23,1.532c-0.221,0.108-0.312,0.375-0.204,0.596
	C225.769,128.729,225.928,128.821,226.093,128.821z M205.935,369.344c-0.143,0.2-0.096,0.479,0.104,0.621
	c0.974,0.694,1.957,1.377,2.948,2.047c0.077,0.052,0.164,0.077,0.249,0.077c0.143,0,0.283-0.069,0.369-0.196
	c0.138-0.205,0.084-0.481-0.12-0.619c-0.985-0.667-1.962-1.344-2.93-2.034C206.356,369.097,206.078,369.145,205.935,369.344z
	 M419.894,302.905c-0.408,1.121-0.829,2.235-1.265,3.341c-0.09,0.229,0.022,0.488,0.251,0.578c0.054,0.022,0.109,0.031,0.164,0.031
	c0.178,0,0.345-0.107,0.414-0.282c0.439-1.116,0.864-2.236,1.274-3.364c0.084-0.231-0.035-0.486-0.266-0.571
	C420.232,302.556,419.977,302.675,419.894,302.905z M244.129,120.577c-0.234,0.076-0.362,0.328-0.285,0.562
	c0.015,0.044,0.052,0.07,0.078,0.106l0.303-0.698C244.193,120.558,244.161,120.567,244.129,120.577z M235.039,124.82
	c0.056,0,0.113-0.01,0.167-0.033c1.099-0.446,2.205-0.879,3.318-1.298c0.23-0.087,0.347-0.343,0.26-0.574
	c-0.087-0.23-0.342-0.346-0.574-0.26c-1.12,0.422-2.233,0.857-3.339,1.306c-0.228,0.093-0.338,0.353-0.245,0.58
	C234.696,124.715,234.863,124.82,235.039,124.82z M198.152,363.334c-0.157,0.19-0.13,0.471,0.06,0.627
	c0.922,0.761,1.855,1.51,2.797,2.246c0.082,0.064,0.178,0.095,0.274,0.095c0.133,0,0.264-0.059,0.352-0.171
	c0.151-0.193,0.117-0.473-0.077-0.625c-0.936-0.733-1.863-1.477-2.78-2.232C198.59,363.117,198.308,363.146,198.152,363.334z
	 M358.143,376.471c-1.026,0.593-2.059,1.174-3.1,1.74c-0.216,0.118-0.296,0.389-0.178,0.605c0.081,0.149,0.234,0.232,0.392,0.232
	c0.072,0,0.145-0.017,0.213-0.054c0.865-0.472,1.72-0.958,2.574-1.446l0.407-1.124C358.348,376.403,358.239,376.414,358.143,376.471
	z M155.149,206.704c-0.083,0.231,0.036,0.487,0.267,0.571c0.05,0.018,0.101,0.026,0.152,0.026c0.182,0,0.353-0.112,0.419-0.294
	c0.099-0.273,0.207-0.543,0.308-0.815c-0.177-0.394-0.34-0.792-0.503-1.19C155.577,205.569,155.356,206.133,155.149,206.704z
	 M151.393,222.373c0.057-0.239-0.091-0.479-0.331-0.536c-0.238-0.059-0.48,0.091-0.536,0.331c-0.273,1.149-0.531,2.304-0.775,3.463
	c0.346-0.212,0.694-0.415,1.048-0.605C150.992,224.14,151.184,223.254,151.393,222.373z M402.145,171.725
	c-0.146-0.198-0.425-0.242-0.623-0.097c-0.09,0.066-0.143,0.16-0.166,0.261c0.614,0.399,1.214,0.82,1.802,1.262
	C402.821,172.676,402.489,172.196,402.145,171.725z M253.86,391.994c0.036,0.009,0.072,0.013,0.107,0.013
	c0.2,0,0.382-0.136,0.432-0.339c0.059-0.238-0.087-0.48-0.325-0.539c-1.154-0.286-2.303-0.587-3.446-0.901
	c-0.237-0.063-0.483,0.074-0.548,0.311c-0.065,0.238,0.074,0.483,0.311,0.548C251.542,391.404,252.698,391.705,253.86,391.994z
	 M263.505,394.028c0.026,0.005,0.052,0.007,0.077,0.007c0.212,0,0.401-0.152,0.439-0.369c0.042-0.242-0.12-0.473-0.362-0.515
	c-1.172-0.205-2.339-0.425-3.501-0.658c-0.241-0.051-0.476,0.108-0.525,0.349s0.108,0.476,0.349,0.525
	C261.151,393.602,262.325,393.823,263.505,394.028z M417.026,312.372c0.1-0.225-0.001-0.488-0.225-0.589
	c-0.224-0.098-0.488,0.001-0.589,0.225c-0.264,0.592-0.542,1.176-0.814,1.763c0.114,0.46,0.227,0.921,0.339,1.394
	C416.175,314.239,416.608,313.309,417.026,312.372z M417.536,200.839c0.071,0.171,0.237,0.274,0.411,0.274
	c0.057,0,0.116-0.011,0.171-0.034c0.227-0.095,0.334-0.355,0.239-0.583c-0.345-0.828-0.706-1.648-1.067-2.468
	c0.11,0.927,0.186,1.856,0.235,2.787C417.529,200.823,417.533,200.831,417.536,200.839z M299.146,394.809
	c-0.245,0.019-0.429,0.233-0.409,0.479c0.018,0.233,0.213,0.411,0.443,0.411c0.012,0,0.024-0.001,0.036-0.002
	c1.196-0.094,2.385-0.203,3.57-0.327c0.245-0.025,0.423-0.244,0.397-0.489c-0.025-0.245-0.25-0.427-0.489-0.397
	C301.515,394.607,300.333,394.715,299.146,394.809z M312.285,115.729c-0.237-0.043-0.473,0.121-0.514,0.363
	c-0.043,0.242,0.12,0.473,0.363,0.515c1.172,0.203,2.34,0.422,3.503,0.654c0.029,0.006,0.058,0.009,0.088,0.009
	c0.208,0,0.393-0.146,0.436-0.358c0.049-0.241-0.108-0.476-0.35-0.524C314.64,116.153,313.465,115.934,312.285,115.729z
	 M428.273,238.513c-0.138-1.19-0.29-2.375-0.457-3.556c-0.034-0.245-0.257-0.417-0.504-0.379c-0.244,0.034-0.413,0.26-0.379,0.503
	c0.165,1.173,0.317,2.351,0.453,3.534c0.027,0.227,0.219,0.394,0.442,0.394c0.017,0,0.035-0.001,0.052-0.003
	C428.126,238.978,428.301,238.758,428.273,238.513z M423.151,215.386c-0.237,0.068-0.372,0.315-0.305,0.552
	c0.329,1.139,0.643,2.285,0.943,3.435c0.052,0.201,0.232,0.333,0.431,0.333c0.037,0,0.075-0.005,0.112-0.014
	c0.238-0.062,0.381-0.305,0.318-0.543c-0.302-1.158-0.618-2.311-0.948-3.458C423.634,215.454,423.385,215.318,423.151,215.386z
	 M425.568,224.909c-0.24,0.051-0.394,0.288-0.343,0.529c0.247,1.159,0.481,2.324,0.701,3.494c0.04,0.214,0.227,0.363,0.437,0.363
	c0.028,0,0.056-0.003,0.083-0.008c0.242-0.045,0.401-0.278,0.356-0.52c-0.221-1.177-0.455-2.349-0.704-3.516
	C426.045,225.012,425.811,224.856,425.568,224.909z M395.438,163.921c-0.188,0.158-0.212,0.439-0.054,0.628
	c0.765,0.907,1.518,1.824,2.258,2.751c0.088,0.11,0.218,0.168,0.348,0.168c0.098,0,0.196-0.032,0.279-0.098
	c0.191-0.154,0.224-0.434,0.07-0.626c-0.746-0.933-1.504-1.857-2.272-2.77C395.907,163.786,395.626,163.763,395.438,163.921z
	 M428.618,248.803c0.006,0,0.013,0,0.02,0c0.246-0.011,0.436-0.219,0.425-0.465c-0.054-1.197-0.124-2.391-0.208-3.58
	c-0.018-0.246-0.248-0.434-0.476-0.412c-0.245,0.017-0.431,0.231-0.413,0.476c0.084,1.181,0.154,2.367,0.208,3.556
	C428.184,248.617,428.38,248.803,428.618,248.803z M420.068,206.056c-0.231,0.085-0.35,0.341-0.265,0.572
	c0.408,1.114,0.802,2.234,1.183,3.362c0.063,0.186,0.236,0.303,0.422,0.303c0.047,0,0.096-0.007,0.143-0.023
	c0.233-0.079,0.359-0.332,0.279-0.565c-0.383-1.134-0.78-2.262-1.19-3.382C420.555,206.09,420.3,205.972,420.068,206.056z
	 M374.182,143.563c-0.151,0.194-0.117,0.474,0.077,0.625c0.937,0.731,1.864,1.474,2.782,2.229c0.083,0.068,0.183,0.101,0.283,0.101
	c0.129,0,0.256-0.055,0.345-0.163c0.156-0.19,0.129-0.471-0.062-0.627c-0.923-0.759-1.857-1.507-2.799-2.242
	C374.612,143.336,374.333,143.368,374.182,143.563z M176.483,169.069c-0.024-0.033-0.047-0.067-0.081-0.093
	c-0.189-0.145-0.455-0.111-0.608,0.068C176.023,169.047,176.253,169.062,176.483,169.069z M282.85,114.625c0.006,0,0.011,0,0.016,0
	c1.182-0.042,2.369-0.07,3.558-0.083c0.246-0.003,0.443-0.205,0.441-0.45c-0.003-0.246-0.192-0.404-0.45-0.441
	c-1.198,0.013-2.391,0.041-3.58,0.084c-0.246,0.009-0.439,0.215-0.43,0.461C282.414,114.436,282.612,114.625,282.85,114.625z
	 M273.049,115.314c0.016,0,0.031-0.001,0.047-0.003c1.178-0.124,2.36-0.233,3.548-0.328c0.245-0.02,0.428-0.234,0.409-0.48
	c-0.02-0.245-0.229-0.427-0.48-0.409c-1.194,0.096-2.384,0.206-3.57,0.331c-0.245,0.026-0.422,0.245-0.396,0.49
	C272.63,115.144,272.824,115.314,273.049,115.314z M263.319,116.683c0.026,0,0.052-0.002,0.078-0.007
	c1.167-0.206,2.339-0.398,3.516-0.574c0.244-0.036,0.411-0.264,0.375-0.507c-0.037-0.243-0.259-0.406-0.507-0.375
	c-1.184,0.178-2.363,0.371-3.538,0.579c-0.242,0.043-0.404,0.274-0.361,0.516C262.919,116.532,263.107,116.683,263.319,116.683z
	 M381.736,149.854c-0.164,0.183-0.15,0.465,0.034,0.629c0.883,0.795,1.756,1.6,2.619,2.415c0.086,0.081,0.197,0.122,0.306,0.122
	c0.118,0,0.236-0.047,0.324-0.14c0.169-0.179,0.161-0.461-0.017-0.63c-0.868-0.821-1.748-1.631-2.637-2.43
	C382.185,149.656,381.9,149.671,381.736,149.854z M366.206,137.811c-0.137,0.204-0.083,0.481,0.121,0.618
	c0.986,0.665,1.964,1.342,2.932,2.031c0.078,0.056,0.169,0.083,0.258,0.083c0.139,0,0.276-0.065,0.363-0.187
	c0.143-0.201,0.096-0.479-0.104-0.621c-0.975-0.694-1.958-1.375-2.951-2.044C366.622,137.554,366.346,137.606,366.206,137.811z
	 M334.675,122.467c0.184,0,0.356-0.114,0.42-0.298c0.082-0.232-0.04-0.486-0.272-0.568c-1.13-0.397-2.267-0.781-3.41-1.15
	c-0.232-0.075-0.485,0.053-0.56,0.287c-0.076,0.234,0.052,0.486,0.287,0.561c1.135,0.367,2.264,0.748,3.388,1.143
	C334.576,122.459,334.626,122.467,334.675,122.467z M186.94,157.453c0.825-0.854,1.66-1.699,2.505-2.532
	c0.175-0.173,0.177-0.455,0.004-0.63c-0.173-0.175-0.455-0.177-0.63-0.004c-0.851,0.839-1.691,1.688-2.521,2.548
	c-0.171,0.177-0.166,0.459,0.011,0.63c0.087,0.084,0.198,0.125,0.309,0.125C186.736,157.589,186.852,157.543,186.94,157.453z
	 M321.931,117.754c-0.245-0.059-0.48,0.087-0.539,0.326c-0.059,0.239,0.087,0.48,0.325,0.539c1.155,0.285,2.304,0.584,3.448,0.898
	c0.04,0.01,0.079,0.016,0.118,0.016c0.196,0,0.375-0.13,0.43-0.328c0.065-0.237-0.075-0.483-0.311-0.548
	C324.249,118.342,323.093,118.041,321.931,117.754z M180.386,164.736c0.764-0.91,1.539-1.811,2.324-2.701
	c0.163-0.184,0.145-0.466-0.04-0.629c-0.183-0.162-0.466-0.145-0.629,0.04c-0.791,0.896-1.57,1.802-2.339,2.718
	c-0.158,0.188-0.133,0.469,0.055,0.628c0.083,0.07,0.185,0.104,0.286,0.104C180.172,164.895,180.298,164.841,180.386,164.736z
	 M193.98,150.645c0.882-0.795,1.773-1.578,2.674-2.351c0.187-0.16,0.208-0.441,0.048-0.628c-0.159-0.186-0.441-0.208-0.628-0.048
	c-0.906,0.777-1.803,1.566-2.69,2.366c-0.183,0.164-0.197,0.446-0.032,0.629c0.088,0.097,0.209,0.147,0.331,0.147
	C193.788,150.76,193.895,150.722,193.98,150.645z M331.391,388.401c-1.128,0.367-2.262,0.72-3.402,1.058
	c-0.236,0.07-0.37,0.318-0.3,0.554c0.057,0.193,0.235,0.318,0.427,0.318c0.042,0,0.084-0.006,0.127-0.018
	c1.148-0.34,2.289-0.696,3.423-1.065c0.234-0.077,0.362-0.328,0.286-0.561C331.876,388.453,331.624,388.326,331.391,388.401z
	 M388.833,156.651c-0.177,0.171-0.182,0.453-0.01,0.63c0.826,0.853,1.64,1.717,2.446,2.59c0.088,0.095,0.207,0.144,0.327,0.144
	c0.108,0,0.217-0.039,0.302-0.118c0.181-0.167,0.192-0.449,0.025-0.63c-0.809-0.878-1.629-1.747-2.46-2.606
	C389.291,156.485,389.009,156.48,388.833,156.651z M358.454,132.462c-0.212-0.122-0.486-0.049-0.608,0.163
	c-0.124,0.213-0.051,0.486,0.163,0.609c1.03,0.595,2.054,1.202,3.067,1.823c0.072,0.044,0.152,0.065,0.232,0.065
	c0.15,0,0.296-0.076,0.38-0.213c0.128-0.21,0.062-0.484-0.148-0.613C360.52,133.672,359.491,133.06,358.454,132.462z
	 M340.705,123.819c-0.225-0.091-0.488,0.018-0.58,0.247c-0.092,0.228,0.018,0.488,0.247,0.58c1.106,0.446,2.205,0.904,3.296,1.378
	c0.058,0.025,0.118,0.036,0.177,0.036c0.172,0,0.336-0.101,0.409-0.268c0.097-0.226-0.006-0.488-0.232-0.586
	C342.924,124.729,341.818,124.267,340.705,123.819z M349.734,127.83c-0.218-0.106-0.487-0.016-0.595,0.206
	c-0.108,0.221-0.016,0.488,0.205,0.596c1.071,0.522,2.135,1.056,3.19,1.604c0.066,0.034,0.136,0.05,0.205,0.05
	c0.161,0,0.316-0.087,0.395-0.24c0.114-0.218,0.029-0.487-0.19-0.601C351.883,128.893,350.812,128.355,349.734,127.83z
	 M152.539,216.666c0.194,0,0.372-0.128,0.428-0.323c0.326-1.144,0.666-2.282,1.02-3.414c0.074-0.235-0.057-0.485-0.292-0.558
	c-0.236-0.075-0.485,0.057-0.558,0.292c-0.357,1.139-0.699,2.285-1.027,3.435c-0.067,0.237,0.07,0.483,0.306,0.551
	C152.457,216.66,152.498,216.666,152.539,216.666z M290.908,73.272c-0.004-0.021-0.008-0.042-0.012-0.062h-0.351
	c0.02,0.055,0.047,0.108,0.067,0.164C290.712,73.337,290.811,73.304,290.908,73.272z M269.761,67.697
	c-0.141,0.32-0.276,0.642-0.412,0.965l1.311,4.547h-2.652c0.739,2.571,1.422,6.016,0.962,8.907h18.962
	c-0.22-2.703,0.356-5.723,0.973-8c-0.068-0.305-0.157-0.606-0.242-0.907h-1.884l0.838-2.907c-0.206-0.48-0.42-0.958-0.641-1.432
	c-0.179-0.382,0.419-0.779,0.734-0.426c0.112,0.126,0.216,0.271,0.326,0.404l5.993-20.782l0.171-0.594l1.969-6.829h-11.153
	c1.381-1.516,2.231-3.525,2.231-5.737c0-4.711-3.819-8.529-8.529-8.529s-8.529,3.819-8.529,8.529c0,2.212,0.849,4.221,2.231,5.737
	h-11.153l2.351,8.152l0.173,0.602l5.177,17.951c0.016-0.019,0.031-0.042,0.047-0.061C269.324,66.928,269.931,67.311,269.761,67.697z
	"></path>
<path id="color_x5F_1" fill="#e2ac0d" d="M96.323,329.205c-9.42-23.821-14.361-49.446-14.361-75.833
	c0-38.43,10.465-75.247,30.024-107.218c0.196,0.135,0.399,0.262,0.611,0.379c-19.046,31.147-30.035,67.733-30.035,106.838
	c0,26.689,5.121,52.203,14.424,75.617C96.758,329.053,96.537,329.124,96.323,329.205z M471.775,161.776
	c0.216-0.105,0.442-0.199,0.675-0.285c-9.81-19.65-22.836-37.801-38.819-53.784c-37.435-37.435-86.742-58.678-139.429-60.234
	l-0.171,0.594C371.824,50.335,438.899,96.07,471.775,161.776z M142.299,107.707c-7.67,7.67-14.649,15.844-20.93,24.438
	c0.199,0.139,0.388,0.286,0.569,0.442c32.899-45.098,83.696-76.338,141.855-83.189l-0.173-0.602
	C217.809,54.155,175.41,74.596,142.299,107.707z M264.005,457.378c-1.138-0.133-2.266-0.301-3.399-0.453l0.555,0.71
	c0.929,0.12,1.858,0.244,2.79,0.352C263.963,457.783,263.982,457.58,264.005,457.378z M245.115,454.915l-1.012-0.869
	c-18.699-4.084-36.449-10.728-52.874-19.536c-0.027,0.263-0.049,0.536-0.075,0.8C208.098,444.351,226.233,450.942,245.115,454.915z
	 M103.796,344.249c-0.203,0.127-0.416,0.243-0.636,0.351c9.846,19.901,22.979,38.278,39.139,54.437
	c4.708,4.708,9.61,9.151,14.677,13.339c0.036-0.29,0.059-0.581,0.091-0.872C134.931,393.148,116.682,370.258,103.796,344.249z
	 M433.63,399.038c38.908-38.908,60.336-90.641,60.336-145.665c0-26.639-5.036-52.5-14.633-76.514
	c-0.206,0.105-0.419,0.201-0.64,0.288c9.458,23.581,14.673,49.305,14.673,76.226c0,71.884-37.125,135.25-93.201,171.963l0.023,0.85
	C412.115,418.406,423.326,409.342,433.63,399.038z M385.628,434.033c-0.285,0.155-0.575,0.302-0.861,0.455l0.033,0.817
	c0.326-0.174,0.648-0.355,0.972-0.531L385.628,434.033z M371.288,441.891l-0.179-0.715c-24.359,10.827-51.197,17.046-79.407,17.552
	l0.428,0.596C319.825,458.779,346.62,452.803,371.288,441.891z M68.63,527.569c-5.22-9.962-10.418-19.934-15.952-29.72
	c-0.479,2.686-0.663,5.403-0.594,8.111c2.156,4.339,4.794,8.48,6.863,12.841c1.504,3.169,2.941,6.369,4.354,9.58h5.757
	C68.916,528.11,68.772,527.84,68.63,527.569z M70.236,470.149c-1.559,1.179-3.045,2.452-4.448,3.809
	c1.054,3.21,2.114,6.418,3.266,9.595c0.68,1.877-2.309,2.678-2.982,0.822c-0.948-2.613-1.83-5.249-2.702-7.887
	c-0.529,0.591-1.055,1.187-1.554,1.802c6.19,16.46,11.375,33.265,16.506,50.091h1.129C75.153,509.214,72.267,489.736,70.236,470.149
	z M59.637,481.203c-1.213,1.76-2.298,3.604-3.248,5.514c2.166,4.088,4.322,8.182,6.307,12.36c0.85,1.79-1.817,3.357-2.67,1.561
	c-1.658-3.49-3.43-6.921-5.225-10.34c-0.401,1.035-0.764,2.086-1.081,3.153c6.496,11.304,12.498,22.879,18.558,34.425
	c0.089,0.169,0.18,0.336,0.269,0.505h2.574C70.297,512.537,65.403,496.719,59.637,481.203z M98.269,460.654
	c-0.211-0.004-0.421-0.016-0.632-0.016c-3.675-0.008-7.317,0.49-10.85,1.417c-0.891,12.198-1.377,24.402-0.235,36.64
	c0.185,1.984-2.909,1.965-3.092,0c-1.112-11.918-0.68-23.806,0.166-35.685c-3.685,1.261-7.216,2.99-10.495,5.117
	c2.053,20.271,4.997,40.43,9.474,60.255h7.183C89.245,505.751,93.905,483.177,98.269,460.654z M121.007,512.474
	c3.411-8.87,6.807-17.8,10.98-26.345c0.997-2.041,2.025-4.084,3.034-6.139c-0.475-0.625-0.964-1.238-1.469-1.839
	c-1.394,2.611-2.764,5.235-4.089,7.884c-4.483,8.961-8.559,18.101-12.631,27.252h3.868
	C120.804,513.017,120.903,512.745,121.007,512.474z M112.472,484.409c2.23-6.001,4.611-11.94,7.129-17.818
	c-2.478-1.389-5.076-2.547-7.75-3.474c-3.117,9.239-5.858,18.586-7.523,28.236c-0.338,1.96-3.317,1.124-2.982-0.822
	c1.671-9.683,4.425-19.063,7.556-28.332c-2.487-0.679-5.029-1.155-7.604-1.387c-4.385,22.466-9.06,45.014-8.461,67.57h5.906
	C101.979,513.344,107.198,498.599,112.472,484.409z M104.658,517.342c-1.023,3.659-1.947,7.34-2.756,11.039h2.756V517.342z
	 M127.718,482.638c1.18-2.329,2.408-4.63,3.651-6.922c-0.687-0.718-1.396-1.415-2.125-2.09c-2.235,3.608-4.475,7.213-6.853,10.731
	c-1.109,1.642-3.787,0.092-2.67-1.561c2.485-3.678,4.822-7.45,7.159-11.222c-1.478-1.208-3.021-2.337-4.623-3.372
	c-2.4,5.619-4.673,11.295-6.804,17.029c-3.396,9.138-6.791,18.516-9.639,28.057h7.65
	C118.073,502.999,122.621,492.699,127.718,482.638z M142.294,510.459c0.497-1.952,1.262-3.996,2.013-5.762
	c-0.147-2.523-0.487-5.036-1.067-7.514c-0.039-0.164-0.086-0.326-0.127-0.49c-4.385,5.002-8.186,10.377-10.425,16.595h7.114
	C140.631,512.341,141.462,511.398,142.294,510.459z M129.644,512.626c2.614-7.367,7.245-13.561,12.482-19.338
	c-1.238-3.674-2.96-7.171-5.076-10.418c-4.573,9.307-8.55,18.781-12.299,28.453c-0.253,0.654-0.494,1.311-0.746,1.966h5.551
	C129.535,513.087,129.559,512.865,129.644,512.626z M152.326,266.259l-11.269,16.951c1.154,16.476,4.088,32.372,8.887,51.07
	c0.166,0.08,0.343,0.151,0.514,0.228c12.724,5.736,36.678,2.248,45.285-5.912c0.436-0.413,0.845-0.835,1.199-1.272
	c-0.443-2.301-0.862-4.604-1.27-6.908c-3.195-18.06-5.26-36.198-5.604-54.444l4.322-0.129l-1.156-24.535
	c-0.262-5.568-4.131-10.31-9.531-11.686c-1.706-1.171-3.492-2.232-5.335-3.156l-0.645,7.653l-1.967-0.166
	c-3.778-4.039-7.985-7.618-12.91-9.95l0.14-1.664c-4.293-0.127-8.464,0.688-12.187,2.686c-0.354,0.19-0.703,0.393-1.048,0.605
	c-0.451,0.276-0.896,0.564-1.332,0.877c-0.4,0.288-0.774,0.585-1.127,0.89c-2.037,1.039-3.821,2.661-5.072,4.836l-10.719,22.454
	L152.326,266.259z M361.227,326.063c1.034,0.441,2.111,0.841,3.222,1.207c12.865,4.235,30.523,3.491,44.232-1.004l0.863-12.33
	l3.718,10.624c1.303-0.549,2.555-1.136,3.743-1.76c0.081-0.042,0.165-0.083,0.246-0.125c-0.45-2.673-0.964-5.169-1.515-7.509
	c-0.111-0.472-0.225-0.934-0.339-1.394c-1.17-4.722-2.474-8.792-3.678-12.379c-4.709,1.404-9.257,2.646-13.618,3.506
	c-3.73,1.953-7.644,1.914-11.431,0.071c-2.144,0.065-4.271,0.523-6.371,1.056c-0.473,0.12-0.793-0.644-0.325-0.926
	c1.779-1.069,3.988-1.901,6.221-2.229c-0.019-0.121-0.036-0.24-0.051-0.357c-0.117,0-0.233-0.004-0.35-0.001
	c-2.144,0.065-4.271,0.523-6.371,1.056c-0.473,0.12-0.793-0.644-0.325-0.926c1.991-1.196,4.52-2.096,7.02-2.323
	c0.001-0.005,0.001-0.009,0.002-0.014c-0.265-0.01-0.53-0.013-0.797-0.005c-2.144,0.065-4.271,0.523-6.371,1.056
	c-0.473,0.12-0.793-0.644-0.325-0.926c2.293-1.378,5.301-2.367,8.155-2.381c0.06-0.127,0.128-0.255,0.196-0.383
	c-0.039,0.001-0.077-0.001-0.115,0c-2.144,0.065-4.272,0.523-6.371,1.056c-0.473,0.12-0.793-0.644-0.325-0.926
	c3.052-1.834,7.367-2.973,10.903-2.046c2.788,0.057,5.558,0.562,8.205,1.495c3.629-1.633,6.735-3.13,9.588-4.622
	c-1.145-4.007-1.669-7.403-0.914-10.67c2.021-8.744,4.269-13.526,6.529-22.006l13.557,20.751c-4.42,3.052-8.095,5.512-11.752,7.735
	c1.472,3.441,3.317,6.699,5.036,10.018c3.493-1.072,7.052-2.142,10.669-3.124c4.329-1.176,8.187-3.799,10.553-7.611
	c0.971-1.564,1.445-3.005,1.139-4.636c0.018-0.14-0.014-0.313-0.122-0.535l-0.009-0.018c-0.09-0.31-0.2-0.626-0.348-0.954
	c-0.119-0.263-0.29-0.502-0.486-0.727l-25.624-51.627l-0.529-1.065c-1.402-3.322-3.617-6.323-6.9-7.652
	c-0.966-0.391-1.977-0.606-3.006-0.708c-13.89,12.535-23.691,28.877-24.708,47.179c-3.35-11.725-4.694-24.767-0.944-36.526
	c-2.503,1.841-4.781,3.723-6.609,5.471c-0.531,0.508-1.03,1.006-1.478,1.486c-9.439,10.107-7.679,18.912-5.12,27.713l1.071,30.995
	c-0.053,0.281-0.105,0.567-0.159,0.846c-1.244,1.713-2.22,3.38-2.652,4.514c-2.032,5.336-3.735,9.63-5.571,13.712
	c1.073,0.68,2.173,1.309,3.282,1.925C362.995,319.882,362.152,322.833,361.227,326.063z M426.518,503.436
	c2.156,4.339,4.794,8.48,6.863,12.841c1.898,4,3.707,8.042,5.469,12.105c0.022,0.05,0.045,0.1,0.067,0.151h5.989
	c-0.026-0.05-0.053-0.1-0.08-0.151c-0.586-1.112-1.178-2.222-1.761-3.336c-4.908-9.367-9.807-18.737-14.974-27.959
	c-0.328-0.586-0.647-1.177-0.978-1.761c-0.104,0.586-0.189,1.173-0.266,1.761C426.571,499.195,426.464,501.317,426.518,503.436z
	 M453.527,528.381c0.015,0.05,0.031,0.101,0.046,0.151h0.905c-0.012-0.05-0.022-0.101-0.033-0.151
	c-4.619-19.979-7.655-40.31-9.775-60.756c-1.559,1.179-3.045,2.452-4.448,3.809c1.054,3.21,2.114,6.418,3.266,9.595
	c0.68,1.877-2.309,2.678-2.982,0.822c-0.948-2.613-1.83-5.249-2.702-7.888c-0.529,0.591-1.055,1.187-1.554,1.802
	c2.652,7.051,5.113,14.168,7.471,21.32c0.588,1.784,1.174,3.569,1.749,5.358C448.244,511.058,450.887,519.719,453.527,528.381z
	 M446.713,525.351c0.532,1.013,1.079,2.019,1.615,3.03c0.027,0.05,0.054,0.1,0.08,0.151h1.962c-0.015-0.05-0.031-0.101-0.046-0.151
	c-1.604-5.273-3.214-10.544-4.854-15.805c-1.614-5.178-3.256-10.345-4.961-15.491c-2.045-6.171-4.174-12.313-6.44-18.407
	c-1.213,1.76-2.298,3.604-3.248,5.514c2.166,4.088,4.322,8.182,6.307,12.36c0.086,0.182,0.128,0.36,0.147,0.533
	c0.172,1.538-2.051,2.641-2.817,1.027c-0.164-0.345-0.34-0.683-0.506-1.027c-1.513-3.135-3.101-6.232-4.719-9.313
	c-0.401,1.035-0.764,2.086-1.081,3.153c1.174,2.042,2.315,4.101,3.46,6.159c4.758,8.556,9.31,17.226,13.857,25.899
	C445.885,523.773,446.298,524.562,446.713,525.351z M464.295,528.532c-0.002-0.05-0.002-0.101-0.004-0.151
	c-0.974-23.476,3.886-46.891,8.412-70.252c-0.211-0.004-0.421-0.016-0.632-0.016c-3.675-0.008-7.317,0.49-10.85,1.417
	c-0.891,12.198-1.377,24.402-0.235,36.64c0.185,1.984-2.909,1.964-3.092,0c-1.112-11.919-0.68-23.806,0.166-35.686
	c-3.685,1.261-7.216,2.99-10.495,5.117c2.14,21.131,5.23,42.144,10.036,62.78c0.012,0.05,0.022,0.101,0.034,0.151H464.295z
	 M488.562,528.532c0.018-0.05,0.037-0.1,0.055-0.151c2.206-6.169,4.472-12.316,6.824-18.432c3.411-8.87,6.807-17.8,10.98-26.345
	c0.997-2.041,2.025-4.084,3.034-6.138c-0.475-0.625-0.964-1.238-1.469-1.839c-1.394,2.611-2.764,5.235-4.089,7.884
	c-4.557,9.109-8.694,18.403-12.833,27.706c-2.431,5.464-5.267,11.228-7.845,17.164c-0.022,0.051-0.045,0.1-0.067,0.151H488.562z
	 M472.596,528.532c0.01-0.05,0.023-0.1,0.033-0.151c3.173-15.913,8.708-31.512,14.277-46.497c2.23-6.001,4.611-11.94,7.129-17.818
	c-2.478-1.389-5.076-2.547-7.75-3.474c-3.117,9.239-5.858,18.586-7.523,28.236c-0.338,1.96-3.317,1.124-2.982-0.822
	c1.671-9.683,4.425-19.063,7.556-28.332c-2.487-0.679-5.029-1.155-7.604-1.387c-4.548,23.304-9.424,46.697-8.386,70.095
	c0.002,0.05,0.002,0.101,0.005,0.151H472.596z M479.831,528.532c0.022-0.051,0.045-0.1,0.066-0.151
	c2.581-6.05,5.453-11.926,7.951-17.504c4.625-10.326,9.188-20.666,14.304-30.763c1.18-2.329,2.408-4.63,3.651-6.922
	c-0.687-0.718-1.396-1.415-2.125-2.09c-2.235,3.608-4.475,7.213-6.853,10.731c-1.109,1.642-3.787,0.093-2.67-1.561
	c2.485-3.678,4.822-7.45,7.159-11.222c-1.478-1.208-3.021-2.337-4.623-3.372c-2.4,5.619-4.673,11.295-6.804,17.029
	c-5.467,14.71-10.936,30.042-14.108,45.675c-0.01,0.05-0.023,0.1-0.033,0.151H479.831z M499.927,528.532
	c0.036-0.051,0.074-0.1,0.11-0.151c5.704-7.993,12.273-15.498,18.791-22.812c0.053-3.658-0.314-7.322-1.155-10.91
	c-0.039-0.164-0.086-0.326-0.127-0.49c-4.423,5.045-8.257,10.467-10.487,16.754c-0.662,1.865-3.648,1.057-2.982-0.822
	c2.614-7.367,7.245-13.561,12.482-19.338c-1.238-3.674-2.96-7.171-5.076-10.418c-4.573,9.307-8.55,18.781-12.299,28.453
	c-2.518,6.495-4.937,13.028-7.288,19.584c-0.018,0.05-0.037,0.1-0.055,0.151H499.927z M310.181,286.57
	c-4.965-25.784-7.768-51.72-6.699-77.894l24.044-57.381l-30.553-66.313l-0.607,0.152l-6.676,1.676l5.84,27.038l0.195,0.901
	l1.976,9.148c0.888,0.058,1.76,0.237,2.544,0.65c1.272,0.67,2.261,2.007,2.202,3.444c-0.032,0.779-0.358,1.532-0.32,2.311
	c0.087,1.777,1.902,2.865,3.387,3.846c1.485,0.981,2.982,2.773,2.152,4.347c-0.727,1.38-3.008,1.941-2.843,3.492
	c0.113,1.057,1.327,1.544,2.138,2.232c1.908,1.619,1.269,5.256-1.076,6.129c-0.756,0.281-1.58,0.303-2.394,0.351l0.2,0.927
	l-2.372,4.898l1.695,10.891c0.857,5.506-2.911,10.664-8.417,11.521l-2.45,0.381l-0.308,3.658l0,0l-0.268,3.186l-0.607,7.205h1.853
	l11.604,80.301l-2.928,7.628l-5.752-6.621l-7.964-81.307h3.188l-1.967-0.166c-0.401-0.429-0.809-0.849-1.22-1.266v-8.937
	l-11.358-3.69l-1.72-0.559v2.835c-1.331,0.032-2.646,0.159-3.936,0.389l-15.932-31.178l12.605-65.101l-7.321-1.672l-15.887,36.526
	l-0.303,0.698l-12.931,29.73l23.603,53.098c-2.438,33.115,0.282,57.089,8.59,89.454c0.725,0.349,1.495,0.661,2.293,0.948
	C279.237,299.418,303.159,295.241,310.181,286.57z"></path>
</svg>