<?xml version="1.0" standalone="no"?>
<svg version="1.1" id="Layer_1" xmlns="http://www.w3.org/2000/svg" xmlns:xlink="http://www.w3.org/1999/xlink" x="0px" y="0px" viewBox="0 0 595.276 595.276" enable-background="new 0 0 595.276 595.276" xml:space="preserve">
<path id="color_x5F_8" fill="#263238" d="M535.932,541.943c0,1.968-1.595,3.562-3.562,3.562H81.715
	c-1.968,0-3.563-1.595-3.563-3.562s1.595-3.563,3.563-3.563h25.843h5.946h3.501h2.076h3.202h0.947h3.156h6.758h3.055h5.368h3.152
	h4.194h3.324h5.369h3.28h8.268H532.37C534.337,538.381,535.932,539.976,535.932,541.943z"></path>
<path id="color_x5F_7" fill="#282828" d="M126.209,473.089v-1.99v-56.128v-1.307V139.006c0-5.711,4.629-10.34,10.34-10.34h25.972
	h1.163h119.876c5.711,0,10.34,4.63,10.34,10.34v68.717h-2v-63.152c0-4.27-3.461-7.731-7.731-7.731h-40.081v0
	c0,5.239-4.247,9.486-9.486,9.486h-31.971c-5.239,0-9.486-4.247-9.486-9.486h-45.096c-4.27,0-7.731,3.461-7.731,7.731v322.953
	c0,4.27,3.461,7.731,7.731,7.731H284.17c4.27,0,7.731-3.461,7.731-7.731V251.6h2v186.883v0.925v33.681
	c0,5.711-4.629,10.34-10.34,10.34h-75.243h-1.759h-32.004h-3.253h-3.643h-5.168h-3.326h-7.907h-3.215h-6.318h-3.04h-2.137
	c-2.755,0-5.252-1.084-7.105-2.841c-1.343-1.272-2.34-2.898-2.849-4.732C126.35,474.975,126.209,474.049,126.209,473.089z"></path>
<path id="color_x5F_6" fill="#e2ac0d" d="M285.591,207.723h6.31v-63.152c0-4.27-3.461-7.731-7.731-7.731h-40.081v0
	c0,5.239-4.247,9.486-9.486,9.486h-31.971c-5.239,0-9.486-4.247-9.486-9.486h-45.096c-4.27,0-7.731,3.461-7.731,7.731v322.953
	c0,4.27,3.461,7.731,7.731,7.731H284.17c4.27,0,7.731-3.461,7.731-7.731V251.6h-6.31V207.723z M150.003,392.131v-43.878h63.437
	v43.878H150.003z M150.003,341.466v-80.949h131.532v80.949H150.003z M213.439,211.784v43.878h-63.437v-43.878H213.439z
	 M218.098,348.254h63.437v43.878h-63.437V348.254z M281.534,161.62v43.878H150.003V161.62H281.534z M150.003,464.557v-66.446
	h131.532v66.446H150.003z"></path>
<path id="color_x5F_5" fill="#FFD2BB" d="M448.925,274.749l3.057-1.311l9.737,22.228c1.574,3.594,1.282,7.732-0.781,11.07
	c-1.745,2.821-4.584,4.79-7.839,5.434l-0.374,0.074C452.31,299.522,451.094,286.753,448.925,274.749z M437.783,520.843l3.513,2.57
	c1.21,0.885,2.629,1.401,4.06,1.477l6.09,0.323l-0.122-7.132l-14.053,0.033L437.783,520.843z M405.307,524.984l6.026,0.323
	l1.216-7.135l-14.053,0.033l0,2.73l3.03,2.571C402.569,524.392,403.891,524.908,405.307,524.984z M423.722,238.983l-1.313-8.726
	l-0.07-0.467l-13.596,1.334l-3.598-7.894c0.517,0.244,1.088,0.392,1.696,0.403c2.305,0.044,4.209-1.789,4.253-4.094l0.047-2.451
	c0.044-2.305-1.789-4.209-4.094-4.253c-1.253-0.024-2.375,0.518-3.156,1.378l-0.577-0.048l-0.789-9.237l-3.722-2.586l0.091-5.172
	l-4.551-0.481l-0.754,7.13l-2.101,19.876c-0.616,5.829,3.61,11.053,9.438,11.669l2.461,0.143l1.171,7.784
	C410.628,239.851,417.511,238.416,423.722,238.983z M326.725,220.079l2.743,0.899l4.403,1.443l-4.403,3.514l-0.465,0.371
	l0.465,3.578l0.157,1.212l4.611,1.866l1.554-1.214l0.626,2.379l4.67,2.305l4.164,40.41c0.34,3.3,2.038,6.309,4.686,8.307
	c3.132,2.363,7.226,3.037,10.95,1.801l23.033-7.64l-6.612-20.456l-14.876,8.714L348.5,231.965l-7.492-11.422l-11.539-1.64
	l-3.172-0.451L326.725,220.079z"></path>
<path id="color_x5F_4" fill="#e1dbbd" d="M394.344,196.687l-0.754,7.13c-4.242-4.655-4.874-12.543-1.257-17.783
	c3.81-5.52,11.796-7.327,17.459-3.949c1.731,1.032,3.284,2.489,5.22,2.987c1.867,0.48,3.834-0.001,5.75,0.16
	c2.587,0.217,5.055,1.675,6.562,3.878s2.027,5.108,1.383,7.729c1.963,1.261,2.872,3.82,2.841,6.222
	c-0.031,2.403-0.848,4.709-1.655,6.96c-2.141,5.973-4.281,11.946-6.422,17.919c-0.287,0.801-0.603,1.619-1.063,2.316l-0.07-0.467
	l-13.596,1.334l-3.598-7.894c0.517,0.244,1.088,0.392,1.696,0.403c2.305,0.044,4.209-1.789,4.253-4.094l0.047-2.451
	c0.044-2.305-1.789-4.209-4.094-4.253c-1.253-0.024-2.375,0.518-3.156,1.378l-0.577-0.048l-0.789-9.237l-3.722-2.586l0.091-5.172
	L394.344,196.687z"></path>
<path id="color_x5F_3" fill="#ffffff" d="M445.357,524.89l6.09,0.323l1.376,0.073c0,0,3.804,6.709,5.34,12.508l-47.627,0.112l0,0
	l-42.476,0.1l0.269-0.466c1.59-2.747,4.308-4.71,7.363-5.319l7.073-1.409c3.667-0.73,7.984-1.887,10.389-4.867l4.533-5.698
	l0.81,0.687l3.03,2.571c1.044,0.886,2.365,1.402,3.781,1.478l6.026,0.323l1.362,0.073c0,0,1.296,3.43,2.201,7.503
	c0.682-0.339,1.413-0.599,2.19-0.76l6.811-1.408c3.531-0.73,7.633-1.886,9.481-4.864l3.466-5.695l0.939,0.687l3.513,2.57
	C442.507,524.298,443.925,524.814,445.357,524.89z"></path>
<path id="color_x5F_2" fill="#1d1c18" d="M379.01,416.678c-0.152,0-0.301-0.076-0.39-0.214c-0.137-0.215-0.074-0.5,0.142-0.638
	c1.036-0.661,2.063-1.337,3.08-2.024c0.211-0.143,0.498-0.088,0.641,0.124c0.143,0.212,0.087,0.499-0.124,0.641
	c-1.024,0.693-2.058,1.372-3.101,2.038C379.181,416.655,379.095,416.678,379.01,416.678z M433.58,233.159
	c-0.233,0.105-0.337,0.377-0.233,0.611c0.5,1.118,0.988,2.244,1.461,3.377c0.074,0.177,0.245,0.284,0.426,0.284
	c0.06,0,0.12-0.011,0.178-0.036c0.235-0.098,0.346-0.368,0.248-0.604c-0.475-1.141-0.966-2.274-1.47-3.399
	C434.086,233.159,433.812,233.055,433.58,233.159z M389.874,177.784c-0.157,0.201-0.121,0.491,0.08,0.648
	c0.971,0.758,1.932,1.528,2.883,2.31c0.086,0.071,0.189,0.105,0.293,0.105c0.134,0,0.265-0.057,0.357-0.169
	c0.161-0.197,0.133-0.488-0.064-0.65c-0.957-0.787-1.925-1.562-2.901-2.324C390.32,177.548,390.031,177.581,389.874,177.784z
	 M364.535,161.477c-0.226-0.11-0.505-0.017-0.617,0.213c-0.112,0.229-0.016,0.506,0.213,0.617c1.11,0.541,2.212,1.095,3.306,1.663
	c0.069,0.035,0.141,0.052,0.213,0.052c0.167,0,0.327-0.091,0.41-0.249c0.118-0.226,0.03-0.505-0.197-0.623
	C366.762,162.579,365.653,162.021,364.535,161.477z M301.974,439.559c1.241-0.013,2.478-0.04,3.711-0.082
	c0.254-0.009,0.454-0.223,0.445-0.478c-0.01-0.254-0.227-0.447-0.478-0.446c-1.226,0.042-2.454,0.07-3.688,0.082
	c-0.255,0.003-0.46,0.211-0.457,0.466c0.003,0.253,0.209,0.457,0.462,0.457C301.971,439.559,301.972,439.559,301.974,439.559z
	 M381.608,171.821c-0.143,0.211-0.087,0.498,0.125,0.641c1.022,0.689,2.036,1.391,3.038,2.105c0.081,0.058,0.175,0.086,0.268,0.086
	c0.144,0,0.286-0.068,0.376-0.194c0.148-0.208,0.099-0.496-0.108-0.644c-1.01-0.719-2.029-1.425-3.058-2.118
	C382.038,171.556,381.752,171.609,381.608,171.821z M373.573,166.278c-0.22-0.126-0.503-0.051-0.63,0.169
	c-0.128,0.221-0.052,0.503,0.169,0.631c1.068,0.616,2.129,1.246,3.179,1.889c0.075,0.046,0.158,0.068,0.241,0.068
	c0.155,0,0.307-0.078,0.394-0.221c0.133-0.217,0.064-0.502-0.153-0.635C375.714,167.532,374.648,166.898,373.573,166.278z
	 M387.66,410.813c0.994-0.737,1.979-1.487,2.953-2.249c0.201-0.157,0.237-0.447,0.079-0.648c-0.158-0.204-0.449-0.237-0.648-0.079
	c-0.969,0.757-1.946,1.502-2.935,2.235c-0.205,0.152-0.248,0.441-0.096,0.646c0.09,0.122,0.23,0.187,0.371,0.187
	C387.48,410.904,387.577,410.874,387.66,410.813z M315.6,147.54c-0.249-0.019-0.48,0.158-0.506,0.413
	c-0.026,0.253,0.158,0.48,0.412,0.506c0.477,0.049,0.952,0.111,1.428,0.165v-0.93C316.489,147.645,316.047,147.586,315.6,147.54z
	 M342.129,433.548c0.043,0,0.087-0.006,0.132-0.019c1.19-0.353,2.372-0.721,3.548-1.104c0.242-0.079,0.375-0.34,0.297-0.582
	c-0.079-0.243-0.34-0.374-0.582-0.297c-1.169,0.381-2.344,0.746-3.526,1.097c-0.244,0.073-0.383,0.329-0.311,0.575
	C341.745,433.418,341.929,433.548,342.129,433.548z M332.27,436.102c0.033,0,0.067-0.004,0.1-0.011
	c1.211-0.269,2.417-0.553,3.617-0.851c0.247-0.061,0.398-0.312,0.336-0.56c-0.062-0.248-0.312-0.398-0.56-0.336
	c-1.191,0.297-2.39,0.579-3.594,0.846c-0.249,0.055-0.406,0.302-0.351,0.551C331.867,435.956,332.058,436.102,332.27,436.102z
	 M351.782,430.306c0.054,0,0.109-0.009,0.162-0.03c1.161-0.436,2.315-0.886,3.462-1.349c0.236-0.096,0.351-0.365,0.255-0.602
	c-0.096-0.236-0.367-0.349-0.602-0.255c-1.14,0.462-2.287,0.908-3.441,1.342c-0.239,0.089-0.36,0.355-0.27,0.594
	C351.42,430.192,351.596,430.306,351.782,430.306z M361.172,426.401c0.064,0,0.13-0.013,0.192-0.041
	c1.125-0.514,2.241-1.043,3.35-1.585c0.229-0.112,0.324-0.389,0.212-0.618c-0.113-0.23-0.391-0.322-0.618-0.212
	c-1.101,0.538-2.211,1.063-3.328,1.574c-0.232,0.106-0.334,0.381-0.228,0.612C360.829,426.301,360.997,426.401,361.172,426.401z
	 M295.472,439.481c0.005,0,0.01,0,0.016,0c0.248,0,0.453-0.197,0.461-0.446c0.008-0.254-0.191-0.468-0.446-0.477
	c-0.536-0.018-1.068-0.05-1.602-0.074v0.925C294.425,439.432,294.947,439.464,295.472,439.481z M312.175,439.109
	c1.239-0.097,2.472-0.21,3.701-0.339c0.253-0.026,0.438-0.253,0.411-0.507c-0.026-0.253-0.259-0.443-0.507-0.411
	c-1.221,0.127-2.447,0.24-3.677,0.337c-0.254,0.02-0.445,0.242-0.424,0.496c0.019,0.242,0.221,0.426,0.459,0.426
	C312.15,439.11,312.163,439.109,312.175,439.109z M295.197,146.868c-0.255,0.009-0.455,0.223-0.445,0.477
	c0.009,0.249,0.214,0.446,0.461,0.446c0.006,0,0.011,0,0.017,0c1.226-0.043,2.455-0.072,3.688-0.086
	c0.255-0.003,0.46-0.212,0.457-0.467c-0.003-0.255-0.199-0.419-0.467-0.457C297.666,146.795,296.43,146.823,295.197,146.868z
	 M370.258,421.853c0.075,0,0.151-0.018,0.221-0.056c1.086-0.593,2.164-1.198,3.232-1.817c0.221-0.127,0.297-0.41,0.169-0.63
	c-0.128-0.221-0.413-0.298-0.63-0.169c-1.063,0.615-2.134,1.217-3.213,1.804c-0.224,0.123-0.307,0.403-0.185,0.627
	C369.937,421.766,370.095,421.853,370.258,421.853z M439.258,246.335c-0.397-1.176-0.808-2.344-1.233-3.506
	c-0.088-0.239-0.352-0.362-0.592-0.275c-0.24,0.088-0.363,0.353-0.275,0.592c0.335,0.915,0.654,1.838,0.972,2.762
	c0.293,0.325,0.584,0.653,0.863,0.998C439.216,246.816,439.337,246.568,439.258,246.335z M305.41,146.853c-0.005,0-0.011,0-0.015,0
	c-0.248,0-0.454,0.197-0.462,0.446c-0.008,0.255,0.192,0.469,0.446,0.477c1.234,0.041,2.464,0.096,3.689,0.167
	c0.009,0,0.018,0.001,0.027,0.001c0.244,0,0.446-0.189,0.461-0.435c0.014-0.254-0.179-0.473-0.434-0.487
	C307.888,146.949,306.651,146.893,305.41,146.853z M429.076,224.051c-0.226,0.12-0.31,0.4-0.19,0.625
	c0.578,1.081,1.144,2.172,1.696,3.269c0.081,0.161,0.244,0.254,0.412,0.254c0.07,0,0.141-0.016,0.207-0.049
	c0.228-0.114,0.319-0.392,0.205-0.62c-0.555-1.105-1.124-2.202-1.705-3.29C429.58,224.015,429.297,223.932,429.076,224.051z
	 M322.325,437.951c1.228-0.182,2.451-0.382,3.668-0.595c0.252-0.044,0.419-0.283,0.375-0.534c-0.043-0.253-0.298-0.427-0.534-0.375
	c-1.21,0.212-2.425,0.409-3.645,0.592c-0.253,0.037-0.427,0.272-0.389,0.524c0.033,0.23,0.231,0.394,0.456,0.394
	C322.279,437.957,322.302,437.955,322.325,437.951z M391.851,362.439c-0.655,14.496-1.073,29.162-0.802,43.667
	c0.177,9.509,0.642,18.95,1.542,28.221c0.016,0.168,0.035,0.335,0.052,0.503c0.401,4.063,0.881,8.094,1.457,12.084
	c1.659,11.48,2.492,22.92,2.877,34.432c0.009,0.276,0.015,0.552,0.024,0.828c0.039,1.218,0.077,2.437,0.106,3.657
	c0.005,0.204,0.012,0.408,0.016,0.613c0.237,10.485,0.146,21.044,0.003,31.764l1.37-0.003l14.053-0.033l1.646-0.004
	c4.221-11.789,6.711-24.581,7.142-37.173c0.008-0.226,0.024-0.452,0.031-0.677c0.118-4.177-0.006-8.325-0.357-12.409
	c-0.025-0.285-0.052-0.569-0.079-0.853c-0.517-5.465-1.454-10.806-2.876-15.907c-1.335-4.787-1.84-9.665-1.76-14.611
	c1.013,3.463,2.069,6.908,3.202,10.316c1.944,5.85,3.663,11.69,5.227,17.533c0.068,0.255,0.139,0.511,0.206,0.766
	c1.817,6.852,3.419,13.711,4.877,20.601c0.043,0.204,0.088,0.408,0.131,0.613c2.204,10.481,4.095,21.035,5.963,31.75l1.37-0.003
	l14.053-0.033l1.646-0.004c2.011-11.783,2.102-24.57,0.171-37.156c-0.035-0.226-0.06-0.452-0.096-0.677
	c-1.604-10.067-4.509-19.991-8.787-29.156c-0.179-0.383-0.333-0.768-0.502-1.152c-0.103-0.234-0.207-0.469-0.306-0.704
	c-2.707-6.408-4.061-12.97-4.53-19.642c-0.012-0.172-0.029-0.343-0.04-0.516c-1.261-19.877,5.167-40.714,6.758-61.345
	C428.306,370.758,407.202,371.146,391.851,362.439z"></path>
<path id="color_x5F_1" fill="#ffffff" d="M113.504,538.381h-5.946c-1.714-3.945-3.471-7.872-5.315-11.758
	c-2.069-4.36-4.707-8.502-6.863-12.841c-0.069-2.709,0.115-5.425,0.594-8.111c5.535,9.787,10.733,19.759,15.952,29.72
	C112.448,536.389,112.978,537.384,113.504,538.381z M113.531,477.971c-1.559,1.179-3.045,2.452-4.448,3.809
	c1.054,3.21,2.114,6.418,3.266,9.595c0.68,1.877-2.309,2.678-2.982,0.822c-0.948-2.613-1.83-5.249-2.702-7.887
	c-0.529,0.591-1.055,1.187-1.554,1.802c6.457,17.171,11.821,34.716,17.171,52.269h0.947
	C118.655,518.513,115.639,498.3,113.531,477.971z M102.932,489.025c-1.213,1.76-2.298,3.604-3.248,5.514
	c2.166,4.088,4.322,8.182,6.307,12.36c0.85,1.79-1.817,3.357-2.67,1.561c-1.658-3.49-3.43-6.921-5.225-10.34
	c-0.401,1.035-0.764,2.086-1.081,3.153c6.496,11.304,12.498,22.879,18.558,34.425c0.471,0.897,0.953,1.789,1.431,2.683h2.076
	C114.04,521.809,108.963,505.251,102.932,489.025z M138.686,483.429h-2.137c-2.755,0-5.252-1.084-7.105-2.841
	c-0.388,8.632-0.404,17.271,0.404,25.927c0.185,1.984-2.909,1.965-3.092,0c-0.955-10.238-0.768-20.452-0.161-30.659
	c-0.245-0.882-0.386-1.807-0.386-2.767v-1.99c-3.426,1.236-6.717,2.86-9.783,4.848c2.128,21.013,5.199,41.909,9.959,62.433h6.758
	C132.427,520.028,135.255,501.711,138.686,483.429z M164.303,520.296c3.411-8.87,6.807-17.8,10.98-26.345
	c0.997-2.041,2.025-4.084,3.034-6.139c-0.475-0.625-0.964-1.238-1.469-1.839c-1.394,2.611-2.764,5.235-4.089,7.884
	c-4.557,9.109-8.694,18.403-12.833,27.706c-2.383,5.356-5.153,11.004-7.69,16.818h5.369
	C159.772,532.329,161.995,526.297,164.303,520.296z M159.165,483.429h-7.907c-1.458,5.179-2.714,10.414-3.634,15.745
	c-0.338,1.96-3.317,1.124-2.982-0.822c0.871-5.048,2.041-10.012,3.401-14.923h-6.318c-3.454,18.287-6.296,36.617-5.528,54.952h5.368
	c3.184-15.793,8.673-31.274,14.202-46.15C156.864,489.282,157.998,486.349,159.165,483.429z M165.687,492.178
	c-1.109,1.642-3.787,0.092-2.67-1.561c1.598-2.364,3.127-4.771,4.642-7.188h-5.168c-1.287,3.191-2.542,6.396-3.742,9.624
	c-5.427,14.601-10.85,29.816-14.032,45.328h4.194c2.542-5.927,5.348-11.686,7.799-17.158c4.625-10.326,9.188-20.666,14.304-30.763
	c1.18-2.329,2.408-4.63,3.651-6.922c-0.036-0.037-0.074-0.071-0.11-0.108h-3.253C169.471,486.372,167.628,489.306,165.687,492.178z
	 M187.69,515.916c0.053-3.658-0.314-7.322-1.155-10.91c-0.039-0.164-0.086-0.326-0.127-0.49
	c-4.423,5.045-8.256,10.467-10.487,16.754c-0.662,1.865-3.648,1.057-2.982-0.822c2.614-7.367,7.245-13.561,12.482-19.338
	c-1.238-3.674-2.96-7.171-5.076-10.418c-4.573,9.307-8.55,18.781-12.299,28.453c-2.474,6.381-4.849,12.798-7.162,19.237h8.268
	C174.798,530.518,181.267,523.123,187.69,515.916z M102.573,369.969c-9.643-24.268-14.95-50.712-14.95-78.374
	c0-40.531,11.39-78.45,31.13-110.733c-0.22-0.122-0.43-0.253-0.633-0.393c-20.273,33.136-31.119,71.295-31.119,111.126
	c0,27.349,5.121,53.907,14.884,78.597C102.108,370.109,102.337,370.035,102.573,369.969z M300.514,78.706
	c83.293,0,155.554,48.089,190.511,117.954c0.224-0.109,0.458-0.206,0.7-0.296c-10.168-20.366-23.669-39.178-40.234-55.744
	c-40.327-40.327-93.945-62.536-150.976-62.536c-51.112,0-99.474,17.85-137.992,50.581h1.163
	C200.712,97.513,248.45,78.706,300.514,78.706z M109.632,385.786c-0.21,0.132-0.431,0.251-0.659,0.364
	c4.952,10.008,10.712,19.64,17.236,28.821v-1.307C120.009,404.837,114.456,395.523,109.632,385.786z M275.626,503.669
	c0.011-0.211,0.03-0.421,0.055-0.631c-23.88-2.787-46.552-9.565-67.364-19.609h-1.759
	C228.13,494.014,251.419,500.876,275.626,503.669z M300.514,504.486c-2.72,0-5.427-0.054-8.122-0.156
	c-0.003,0.203-0.01,0.407-0.025,0.609c2.708,0.101,5.423,0.168,8.147,0.168c34.086,0,66.949-7.94,96.488-22.933
	c-0.009-0.276-0.015-0.553-0.024-0.828C368.003,496.136,335.216,504.486,300.514,504.486z M424.724,464.388
	c-1.254,0.904-2.519,1.792-3.793,2.669c0.027,0.284,0.055,0.568,0.079,0.853c1.316-0.903,2.622-1.821,3.92-2.756
	C424.863,464.899,424.793,464.643,424.724,464.388z M451.49,442.571c40.326-40.326,62.536-93.945,62.536-150.975
	c0-27.61-5.22-54.414-15.166-79.303c-0.213,0.109-0.435,0.208-0.663,0.298c9.803,24.441,15.208,51.102,15.208,79.004
	c0,62.426-27.009,118.661-69.954,157.637c0.099,0.235,0.203,0.469,0.306,0.704C446.384,447.553,448.963,445.097,451.49,442.571z
	 M285.591,207.723V251.6h6.31h2h35.568v-21.717l-0.465-3.578l0.465-0.371v-4.957l-2.743-0.899l-0.429-1.627l3.172,0.451v-11.18
	h-35.568h-2H285.591z M360.812,187.863v-43.878h-43.878v3.71v0.93v39.238H360.812z M150.003,205.497h131.532V161.62H150.003V205.497
	z M281.534,398.111H150.003v66.446h131.532V398.111z M281.534,260.517H150.003v80.949h131.532V260.517z M150.003,255.662h63.437
	v-43.878h-63.437V255.662z M281.534,348.254h-63.437v43.878h63.437V348.254z M213.439,348.254h-63.437v43.878h63.437V348.254z
	 M391.984,276.634c4.528,25.791,1.746,61.195-2.01,84.683c0.614,0.392,1.242,0.762,1.877,1.122
	c15.351,8.706,36.455,8.319,53.786,5.291c1.359-0.237,2.697-0.489,4.005-0.756c2.506-16.214,3.713-35.414,3.082-54.73
	c-0.416-12.722-1.632-25.491-3.8-37.494l3.057-1.311l-8.657-19.762c-0.486-1.109-1.091-2.104-1.781-2.998
	c-0.782-1.359-1.627-2.623-2.553-3.771c-0.279-0.346-0.57-0.673-0.863-0.998c-2.32-2.578-5.076-4.527-8.408-5.686
	c-1.88-0.654-3.905-1.049-5.999-1.24c-6.21-0.567-13.094,0.869-19.162,4.308c-1.688,0.957-3.309,2.071-4.837,3.333l-22.414,12.23
	l6.612,20.456L391.984,276.634z"></path>
</svg>